<svg width="156" height="36" viewBox="0 0 156 36" fill="none" xmlns="http://www.w3.org/2000/svg">
<mask id="mask0_42_608" style="mask-type:luminance" maskUnits="userSpaceOnUse" x="0" y="0" width="156" height="36">
<path d="M155.625 0.367676H0.808105V35.2559H155.625V0.367676Z" fill="white"/>
</mask>
<g mask="url(#mask0_42_608)">
<path d="M15.9206 18.0863C16.6132 19.1956 17.3938 20.2405 18.2508 21.2147C22.5179 26.0453 28.7513 29.0916 35.689 29.0916V25.2881C24.9596 25.2881 16.2258 16.5545 16.2258 5.81909H12.4224C12.4224 8.68341 12.9448 11.4244 13.8956 13.9601C14.4357 15.4099 15.1223 16.7891 15.9264 18.0805L15.9206 18.0863Z" fill="#6F6F6F"/>
<path d="M35.6945 21.2383V17.4348C29.2909 17.4348 24.0788 12.2227 24.0788 5.81909H20.2754C20.2754 14.3181 27.1896 21.2383 35.6945 21.2383Z" fill="#6F6F6F"/>
<path d="M14.2726 19.8762C10.6806 23.3155 5.86173 25.2878 0.808105 25.2878V29.0912C6.70693 29.0912 12.3416 26.8373 16.6029 22.9048C15.7517 21.9597 14.9712 20.9444 14.2726 19.8762Z" fill="#6F6F6F"/>
<path d="M12.2359 16.1545C11.6197 14.7635 11.1208 13.302 10.7627 11.7876C8.7319 15.1684 5.02825 17.434 0.808105 17.434V21.2375C5.33934 21.2375 9.41863 19.2712 12.2359 16.1545Z" fill="#6F6F6F"/>
<path d="M13.8907 13.9601C13.4035 14.7407 12.8518 15.4743 12.2355 16.1553C11.6192 14.7642 11.1202 13.3027 10.7622 11.7884C11.8188 10.0451 12.4233 8.00254 12.4233 5.81909C12.4233 8.68341 12.9457 11.4244 13.8964 13.9601H13.8907Z" fill="#6F6F6F"/>
<path d="M18.2602 21.2139C17.7379 21.8067 17.1861 22.376 16.6049 22.9043C15.7539 21.9592 14.9733 20.944 14.2749 19.8757C14.8618 19.318 15.4135 18.7194 15.93 18.0854C16.6226 19.1948 17.4032 20.2395 18.2602 21.2139Z" fill="#6F6F6F"/>
<path d="M52.3679 15.6985L46.5996 28.6359H49.6691L50.8124 25.8652H56.8177L57.961 28.6359H61.1028L55.3189 15.6985H52.3627H52.3679ZM51.7756 23.5886L53.8253 18.6341L55.8752 23.5886H51.7704H51.7756Z" fill="#6F6F6F"/>
<path d="M68.0529 15.6985H62.4546V28.6359H65.4468V25.0669H68.0529C71.5087 25.0669 73.6718 23.2745 73.6718 20.3904C73.6718 17.5062 71.5087 15.6985 68.0529 15.6985ZM67.8881 22.6308H65.4468V18.1396H67.8881C69.7164 18.1396 70.6435 18.9689 70.6435 20.3955C70.6435 21.8221 69.7215 22.6308 67.8881 22.6308Z" fill="#6F6F6F"/>
<path d="M81.3995 15.6985H75.8013V28.6359H78.7935V25.0669H81.3995C84.8554 25.0669 87.0185 23.2745 87.0185 20.3904C87.0185 17.5062 84.8554 15.6985 81.3995 15.6985ZM81.2348 22.6308H78.7935V18.1396H81.2348C83.0631 18.1396 83.99 18.9689 83.99 20.3955C83.99 21.8221 83.0682 22.6308 81.2348 22.6308Z" fill="#6F6F6F"/>
<path d="M91.5413 19.3549C91.5413 18.5412 92.2263 17.8769 93.998 17.8769C95.1413 17.8769 96.3825 18.2116 97.5825 18.8915L98.5045 16.6201C97.3045 15.8631 95.6408 15.4717 94.0135 15.4717C90.3361 15.4717 88.5593 17.2999 88.5593 19.4992C88.5593 24.3043 96.0787 22.6408 96.0787 25.0614C96.0787 25.8545 95.3576 26.4469 93.5859 26.4469C92.0357 26.4469 90.4084 25.8906 89.3164 25.0975L88.3018 27.3533C89.4452 28.2391 91.5156 28.8521 93.5705 28.8521C97.2684 28.8521 99.0606 27.003 99.0606 24.8399C99.0606 20.0914 91.5413 21.7344 91.5413 19.3498V19.3549Z" fill="#6F6F6F"/>
<path d="M99.4678 18.1396H103.609V28.6359H106.601V18.1396H110.742V15.6985H99.4678V18.1396Z" fill="#6F6F6F"/>
<path d="M123.565 20.3904C123.565 17.4907 121.402 15.6985 117.947 15.6985H112.348V28.6359H115.34V25.0307H118.096L120.594 28.6359H123.807L120.908 24.4797C122.592 23.7587 123.57 22.3372 123.57 20.3955L123.565 20.3904ZM117.781 22.6461H115.34V18.1346H117.781C119.609 18.1346 120.537 18.9638 120.537 20.3904C120.537 21.817 119.609 22.6461 117.781 22.6461Z" fill="#6F6F6F"/>
<path d="M129.995 15.6985L124.226 28.6359H127.296L128.439 25.8652H134.444L135.587 28.6359H138.73L132.946 15.6985H129.99H129.995ZM129.403 23.5886L131.452 18.6341L133.502 23.5886H129.397H129.403Z" fill="#6F6F6F"/>
<path d="M143.072 15.6985H140.079V28.6359H143.072V15.6985Z" fill="#6F6F6F"/>
<path d="M149.137 26.1947V15.6985H146.145V28.6359H155.626V26.1947H149.137Z" fill="#6F6F6F"/>
</g>
</svg>
