<svg width="107" height="44" viewBox="0 0 107 44" fill="none" xmlns="http://www.w3.org/2000/svg">
<mask id="mask0_42_627" style="mask-type:luminance" maskUnits="userSpaceOnUse" x="0" y="0" width="107" height="44">
<path d="M106.104 0.160889H0.554688V43.463H106.104V0.160889Z" fill="white"/>
</mask>
<g mask="url(#mask0_42_627)">
<path d="M88.3423 14.4719H87.4702V30.281H88.3423V14.4719Z" fill="#6F6F6F"/>
<path d="M100.541 29.4243C100.546 29.4131 100.552 29.4029 100.56 29.3937L104.762 20.585H103.783L100.702 27.2383C100.675 27.2965 100.617 27.334 100.552 27.334C100.488 27.334 100.43 27.2969 100.402 27.2383L97.3217 20.585H96.3325L100.083 28.4285C100.104 28.4733 100.104 28.5258 100.083 28.5705L97.4996 33.9907H98.35L100.541 29.4243Z" fill="#6F6F6F"/>
<path d="M66.2768 26.4859V20.585H65.4043V26.5508C65.4043 27.3738 65.1003 28.0885 64.5012 28.6743C63.9089 29.2535 63.1946 29.5472 62.3784 29.5472C61.5029 29.5472 60.7586 29.2501 60.1664 28.6643C59.5673 28.0851 59.2637 27.3742 59.2637 26.551V20.5854H58.3916V26.6304C58.4111 27.7172 58.7829 28.6307 59.4968 29.3443C60.2104 30.0578 61.1836 30.4201 62.3887 30.4201C63.5215 30.4201 64.458 30.0582 65.1716 29.3443C65.8537 28.6621 66.2236 27.798 66.2722 26.7739C66.2225 26.7448 66.1891 26.6904 66.1902 26.6284C66.1914 26.5667 66.2259 26.5135 66.2768 26.4859Z" fill="#6F6F6F"/>
<path d="M50.4438 30.2807V23.7905C50.4242 22.7037 50.0525 21.7902 49.3384 21.0766C48.6249 20.363 47.6854 20.0008 46.5454 20.0008C45.6139 20.0008 44.7897 20.2902 44.0952 20.8607C44.0649 20.8856 44.0282 20.8983 43.9906 20.8983C43.967 20.8983 43.9428 20.8928 43.9203 20.8826C43.8624 20.8553 43.8257 20.7971 43.8257 20.7336V14.4712H42.9536V30.2803H43.8257V22.6007C43.8257 22.5758 43.8314 22.5513 43.8422 22.5291C43.9735 22.2569 44.1683 21.9908 44.4207 21.7377C45.0151 21.1631 45.7291 20.873 46.5454 20.873C47.3615 20.873 48.0756 21.17 48.6685 21.7557C49.2677 22.3351 49.5716 23.0459 49.5716 23.8693V30.2803L50.4438 30.2807Z" fill="#6F6F6F"/>
<path d="M77.1108 30.2809V21.6223C77.1108 21.5312 77.1846 21.4577 77.2758 21.4577H79.0891V20.5853H77.2758C77.1846 20.5853 77.1108 20.5113 77.1108 20.4206V16.4507H76.2387V20.4206C76.2387 20.5117 76.1648 20.5853 76.0736 20.5853H74.2603V21.4577H76.0736C76.1648 21.4577 76.2387 21.5316 76.2387 21.6223V30.2809H77.1108Z" fill="#6F6F6F"/>
<path d="M0.671255 17.9816L0.555747 2.99115C0.543884 1.43179 1.80479 0.160889 3.36447 0.160889C9.31098 0.160889 14.1314 4.98132 14.1314 10.9278V22.4399C15.7564 21.5241 19.5269 19.3837 21.6075 18.1499C24.2086 16.6077 26.7102 17.9001 30.1168 20.386C32.8422 22.3747 35.633 30.6407 35.8326 32.137V40.1976C35.8326 41.9836 34.3849 43.4311 32.5989 43.4311C26.8844 43.4311 22.252 38.7988 22.252 33.0842V31.725C21.0295 32.3964 17.3684 34.0965 14.7927 35.6819C11.5727 37.6633 10.2753 36.3699 6.68392 33.9239C3.81059 31.9672 0.795193 24.2191 0.671255 22.7228V17.9816Z" fill="#6F6F6F"/>
<g style="mix-blend-mode:luminosity" opacity="0.45">
<path d="M32.2008 25.9312C34.9261 27.9198 35.6335 30.6408 35.833 32.1371V40.1977C35.833 41.9838 34.3854 43.4313 32.5994 43.4313C26.8848 43.4313 22.2524 38.7988 22.2524 33.0842V31.725" fill="#6F6F6F"/>
</g>
<g style="mix-blend-mode:luminosity" opacity="0.5">
<path d="M3.31015 29.1107C0.436805 27.1539 0.795193 24.2191 0.671255 22.7228V17.9819L0.555747 2.99115C0.543884 1.43179 1.80479 0.160889 3.36447 0.160889C9.31098 0.160889 14.1314 4.98132 14.1314 10.9278V22.4399" fill="#6F6F6F"/>
</g>
<path fill-rule="evenodd" clip-rule="evenodd" d="M21.4902 33.1188L21.272 33.2528L21.2607 33.2322L17.0581 35.7696C9.29498 40.4568 0.794196 34.8812 0.63623 25.2615L0.670258 18.193C0.670258 28.5329 6.37355 26.5911 13.2563 22.3395C13.8157 21.9938 14.3892 21.642 14.9671 21.2874L15.1849 21.1534L15.1961 21.1741L19.6279 18.4984C27.352 13.8349 35.6677 19.8348 35.8202 29.1451V36.2166C35.8202 25.8767 30.083 27.8156 23.2004 32.0671C22.6408 32.4127 22.0677 32.7646 21.4902 33.1188Z" fill="#6F6F6F"/>
</g>
</svg>
