<svg width="155" height="35" viewBox="0 0 155 35" fill="none" xmlns="http://www.w3.org/2000/svg">
<mask id="mask0_42_566" style="mask-type:luminance" maskUnits="userSpaceOnUse" x="0" y="0" width="155" height="35">
<path d="M154.998 0.654663H0.484375V34.0629H154.998V0.654663Z" fill="white"/>
</mask>
<g mask="url(#mask0_42_566)">
<path d="M61.0885 7.72217H36.9482V13.0638H45.3357V26.8295H50.6817V13.0638H55.74L61.0885 7.72217Z" fill="#6F6F6F"/>
<path d="M65.86 13.0628H81.1026V7.72119H63.9798L58.9824 12.671V26.8269H81.1026V21.4853H64.3283V19.9224H74.2358V14.6237H64.3283L65.8593 13.0607L65.86 13.0628Z" fill="#6F6F6F"/>
<path d="M105.409 17.6655V12.6723L100.413 7.72241H83.2896V26.8298H88.6355V22.6174H98.4562L100.064 24.2243V26.8303H105.41V22.0102L103.236 19.8384L105.41 17.6676L105.409 17.6655ZM88.6355 13.0624H98.2391L100.064 14.8858V15.4497L98.2391 17.3166H88.6355V13.0608V13.0624Z" fill="#6F6F6F"/>
<path d="M129.714 17.6655V12.6723L124.717 7.72241H107.594V26.8298H112.94V22.6174H122.76L124.368 24.2243V26.8303H129.714V22.0102L127.541 19.8384L129.714 17.6676V17.6655ZM112.94 13.0624H122.544L124.369 14.8858V15.4497L122.544 17.3166H112.94V13.0608V13.0624Z" fill="#6F6F6F"/>
<path d="M147.414 7.72217H131.9V26.8295H137.202V22.6172H149.502V26.8295H154.847V15.1477L147.414 7.72217ZM145.197 13.0638L149.5 17.3196H137.201V13.0638H145.197Z" fill="#6F6F6F"/>
<path d="M31.0913 34.0315H7.0903C6.55716 34.0315 6.06054 33.7446 5.79369 33.2824L2.21674 27.091C1.94989 26.6288 1.94989 26.0548 2.21674 25.5927L14.1621 4.91604C14.429 4.45437 14.9267 4.16687 15.4589 4.16687H22.6153C23.149 4.16687 23.6451 4.45383 23.912 4.91604L35.9114 25.6848C36.1783 26.147 36.1783 26.721 35.9114 27.1831L32.387 33.2829C32.1201 33.7451 31.6233 34.0315 31.0913 34.0315ZM15.4589 4.4999C15.0442 4.4999 14.6572 4.72332 14.4491 5.08176L2.5037 25.7584C2.29562 26.1184 2.29562 26.5653 2.5037 26.9248L6.08065 33.1161C6.28873 33.4747 6.67522 33.698 7.08978 33.698H31.0909C31.5054 33.698 31.8924 33.4747 32.0999 33.1161L35.6245 27.0163C35.8326 26.6568 35.8326 26.21 35.6245 25.85L23.624 5.08123C23.4159 4.7228 23.0294 4.49938 22.6142 4.49938L15.4589 4.4999Z" fill="#6F6F6F"/>
<path d="M36.2194 31.525L23.5084 9.52474L24.2152 8.30226L19.8075 0.685059L19.1044 1.90226L19.0981 1.8922L6.36744 23.9232H4.90882L0.523926 31.525H27.4089L28.131 32.774L36.9373 32.7686L36.2194 31.525ZM23.8425 27.5499L21.7443 23.9194H15.2082L15.2262 23.8887H11.0594L11.6922 22.8128H15.8472L19.0657 17.2441L19.0595 17.2326L21.1814 13.5597L21.7977 14.6456L19.7139 18.2517L22.9884 23.9189L25.0914 27.5595L23.8425 27.5499Z" fill="#6F6F6F"/>
</g>
</svg>
