<svg width="157" height="33" viewBox="0 0 157 33" fill="none" xmlns="http://www.w3.org/2000/svg">
<mask id="mask0_42_1094" style="mask-type:luminance" maskUnits="userSpaceOnUse" x="0" y="0" width="157" height="33">
<path d="M156.033 0.206543H0.757812V32.5107H156.033V0.206543Z" fill="white"/>
</mask>
<g mask="url(#mask0_42_1094)">
<path d="M43.137 24.8781C42.3 24.8262 41.3064 24.8001 40.1557 24.8001H39.7373V7.46984C40.2778 7.51313 40.6615 7.53475 40.888 7.53475H41.424C42.1127 7.53475 42.6837 7.50014 43.137 7.43091V14.35H49.2825V7.46984C50.0061 7.51313 50.7077 7.53475 51.3876 7.53475C52.0764 7.53475 52.5077 7.50014 52.6821 7.43091V24.8781C52.2637 24.8262 51.4356 24.8001 50.1978 24.8001H49.2825V17.4655H43.137V24.8781Z" fill="#6F6F6F"/>
<path d="M56.1216 18.0889C56.1216 17.1368 56.2828 16.2282 56.6052 15.3627C56.9367 14.4887 57.4073 13.7271 58.0176 13.078C59.3513 11.676 61.0815 10.975 63.2087 10.975C65.3266 10.975 67.009 11.637 68.2558 12.9612C69.4499 14.2247 70.0471 15.8647 70.0471 17.8811C70.0471 19.8976 69.4325 21.5679 68.2035 22.8919C66.9046 24.2939 65.1831 24.9949 63.0385 24.9949C60.8244 24.9949 59.0897 24.3068 57.8346 22.931C56.6925 21.676 56.1216 20.062 56.1216 18.0889ZM59.299 18.011C59.299 18.5562 59.3905 19.0841 59.5736 19.5947C59.7567 20.1053 60.0181 20.5423 60.3582 20.9058C61.0815 21.6933 62.0316 22.0872 63.2087 22.0872C64.2981 22.0872 65.1567 21.702 65.7843 20.9317C66.3946 20.1875 66.6998 19.2182 66.6998 18.0239C66.6998 16.8123 66.3858 15.8344 65.7582 15.0902C65.0869 14.2939 64.1674 13.8958 62.9993 13.8958C61.8138 13.8958 60.8855 14.3199 60.2142 15.168C59.6039 15.9469 59.299 16.8945 59.299 18.011Z" fill="#6F6F6F"/>
<path d="M76.1785 24.5277V28.3442C76.1785 29.0885 76.1959 29.573 76.2308 29.7981H72.9751V11.2346H76.1785V12.0784C77.2334 11.3428 78.2445 10.975 79.2121 10.975C80.1796 10.975 81.0383 11.1091 81.788 11.3774C82.5377 11.6457 83.1958 12.0611 83.7624 12.6236C85.0089 13.8439 85.6321 15.5834 85.6321 17.8422C85.6321 19.3394 85.2791 20.6765 84.573 21.8536C83.9715 22.8487 83.1392 23.6449 82.0755 24.2421C81.1342 24.77 80.1143 25.0339 79.0159 25.0339C77.9176 25.0339 76.9717 24.8651 76.1785 24.5277ZM76.1785 21.2563C76.841 21.8103 77.6996 22.0872 78.7544 22.0872C80.4803 22.0872 81.5961 21.2606 82.1017 19.6077C82.276 19.0452 82.3633 18.4437 82.3633 17.8033C82.3633 17.1541 82.3023 16.6392 82.1802 16.2584C82.0583 15.8689 81.8969 15.5358 81.6965 15.2589C81.5046 14.9732 81.2866 14.7396 81.0427 14.5579C80.7986 14.3675 80.5501 14.216 80.2972 14.1035C79.8527 13.9045 79.3952 13.805 78.9243 13.805C78.4536 13.805 77.9655 13.9131 77.4599 14.1294C76.9543 14.3459 76.5272 14.6357 76.1785 14.9992V21.2563Z" fill="#6F6F6F"/>
<path d="M92.995 24.9949C90.5367 24.9949 88.6844 24.5494 87.438 23.6581C87.4554 23.3983 87.4814 23.1041 87.5163 22.7753L87.6339 21.8406C87.7037 21.2261 87.7475 20.8453 87.7649 20.6981C87.7821 20.5423 87.7953 20.4601 87.8041 20.4514C87.8127 20.4341 87.8825 20.5034 88.0131 20.6592C88.1439 20.8063 88.3924 20.9881 88.7586 21.2044C89.1246 21.4208 89.5474 21.6112 90.0268 21.7755C91.0642 22.1305 92.145 22.3079 93.2696 22.3079C94.7776 22.3079 95.5315 21.8103 95.5315 20.8149C95.5315 20.4947 95.3877 20.2567 95.1002 20.101C94.5859 19.8413 93.8274 19.6466 92.825 19.5168C91.8313 19.3783 91.0161 19.1793 90.38 18.9196C89.7436 18.66 89.2248 18.3485 88.8238 17.985C88.0829 17.3013 87.7126 16.4056 87.7126 15.2978C87.7126 13.9478 88.2354 12.8876 89.2814 12.1174C90.3188 11.3558 91.7529 10.975 93.5835 10.975C95.3965 10.975 96.9439 11.4856 98.2253 12.5068C98.1642 12.7319 98.0989 12.9482 98.0291 13.1559C97.8286 13.7271 97.6804 14.1381 97.5846 14.3892L97.2837 15.155C97.2662 15.2243 97.2532 15.2589 97.2445 15.2589C97.2271 15.2589 97.1573 15.168 97.0353 14.9863C96.486 14.3545 95.6319 13.9391 94.4725 13.74C94.1152 13.6709 93.749 13.6362 93.3741 13.6362C91.7878 13.6362 90.9944 14.1121 90.9944 15.0642C90.9944 15.393 91.16 15.644 91.4912 15.8171C92.1102 16.146 92.9556 16.3883 94.0278 16.5441C95.1087 16.6998 95.9282 16.9118 96.4863 17.1801C97.044 17.4398 97.493 17.7556 97.8329 18.1278C98.4605 18.8028 98.7745 19.6985 98.7745 20.8149C98.7745 22.0352 98.2819 23.0262 97.2969 23.7877C96.2683 24.5927 94.8343 24.9949 92.995 24.9949Z" fill="#6F6F6F"/>
<path d="M107.874 21.9446C108.998 21.9446 109.77 21.6546 110.188 21.0747H110.293L110.332 24.0865C109.905 24.5105 109.112 24.7918 107.952 24.9302C107.638 24.9735 107.246 24.9951 106.775 24.9951C106.313 24.9951 105.808 24.9085 105.259 24.7356C104.718 24.5625 104.256 24.2812 103.873 23.8919C103.079 23.0868 102.683 21.8276 102.683 20.1141V14.2205H100.708C100.7 13.9695 100.695 13.7142 100.695 13.4546V11.4555C100.695 11.3083 100.7 11.2348 100.708 11.2348H102.683V7.53503H105.886V11.2348H109.482V14.2205H105.886V19.517C105.886 20.8757 106.265 21.6502 107.024 21.8407C107.268 21.9098 107.551 21.9446 107.874 21.9446Z" fill="#6F6F6F"/>
<path d="M122.022 23.9954C120.784 24.6618 119.664 24.9949 118.661 24.9949C117.659 24.9949 116.8 24.9041 116.085 24.7223C115.37 24.5319 114.765 24.255 114.268 23.8917C113.257 23.1561 112.751 22.0914 112.751 20.6981C112.751 19.452 113.37 18.4133 114.608 17.5826C115.95 16.6825 117.772 16.2324 120.073 16.2324L120.596 16.2455C120.701 16.2541 120.819 16.2628 120.949 16.2715C121.08 16.2715 121.198 16.2801 121.302 16.2974C121.233 14.9128 120.631 14.1035 119.498 13.8699C119.123 13.7919 118.722 13.753 118.295 13.753C117.877 13.753 117.463 13.7919 117.053 13.8699C116.652 13.9391 116.26 14.0343 115.876 14.1554C115.031 14.4237 114.425 14.7309 114.059 15.0771L114.019 15.0511L113.627 12.1823C115.17 11.3774 116.857 10.975 118.687 10.975C121.529 10.975 123.347 11.9919 124.14 14.0257C124.393 14.6747 124.519 15.406 124.519 16.2195V20.9188C124.519 21.9227 124.876 22.6064 125.591 22.97L123.225 25.1248C122.728 24.8651 122.327 24.4887 122.022 23.9954ZM121.315 18.634C121.08 18.5907 120.836 18.5692 120.583 18.5692H120.06C118.134 18.5692 116.909 18.9932 116.386 19.8413C116.229 20.0924 116.151 20.3563 116.151 20.6333C116.151 20.9102 116.199 21.1568 116.294 21.3731C116.399 21.5809 116.569 21.7541 116.804 21.8925C117.258 22.1521 117.929 22.2819 118.818 22.2819C119.716 22.2819 120.553 22.0697 121.329 21.6458C121.32 21.5506 121.315 21.4511 121.315 21.3472V18.634Z" fill="#6F6F6F"/>
<path d="M139.296 23.5411C138.319 24.5104 136.791 24.9949 134.706 24.9949C132.684 24.9949 131.033 24.3849 129.751 23.1646C128.452 21.927 127.803 20.2827 127.803 18.2317C127.803 16.146 128.444 14.4323 129.725 13.0909C131.084 11.6803 132.902 10.975 135.177 10.975C136.791 10.975 138.141 11.3255 139.231 12.0265L138.708 15.3498L138.616 15.3367C138.198 14.8348 137.757 14.506 137.296 14.3501C136.546 14.0906 135.796 13.9607 135.046 13.9607C134.297 13.9607 133.709 14.0559 133.281 14.2463C132.855 14.4367 132.488 14.7007 132.183 15.0382C131.573 15.7306 131.268 16.6479 131.268 17.7903C131.268 19.8154 131.973 21.1395 133.386 21.7626C133.874 21.9702 134.388 22.0743 134.929 22.0743C135.478 22.0743 135.953 22.0267 136.354 21.9315C136.763 21.8361 137.134 21.7064 137.465 21.5419C138.172 21.1957 138.651 20.7933 138.905 20.3346L138.995 20.3735L139.296 23.5411Z" fill="#6F6F6F"/>
<path d="M145.427 23.0868C145.427 23.8311 145.457 24.4023 145.518 24.8003H142.223V6.23682H145.427V17.6086L151.402 11.2347H155.285L150.135 16.622L153.075 20.6074C153.713 21.6113 154.192 22.3468 154.514 22.8141L155.377 24.0214C155.639 24.359 155.856 24.6186 156.031 24.8003H153.964C153.198 24.8003 152.539 24.8652 151.99 24.995L147.911 19.0755L145.427 21.6978V23.0868Z" fill="#6F6F6F"/>
<path d="M16.9097 32.5105C25.8303 32.5105 33.0617 25.2789 33.0617 16.3585C33.0617 7.43802 25.8303 0.206543 16.9097 0.206543C7.98928 0.206543 0.757812 7.43802 0.757812 16.3585C0.757812 25.2789 7.98928 32.5105 16.9097 32.5105Z" fill="#6F6F6F"/>
<path d="M20.0886 12.3678C21.0085 12.3678 21.7542 11.6221 21.7542 10.7022C21.7542 9.78225 21.0085 9.0365 20.0886 9.0365C19.1686 9.0365 18.4229 9.78225 18.4229 10.7022C18.4229 11.6221 19.1686 12.3678 20.0886 12.3678Z" fill="white"/>
<path d="M14.7886 9.0365H12.063V23.5733H14.7886V9.0365Z" fill="white"/>
<path d="M21.4511 13.2764H18.7256V23.5733H21.4511V13.2764Z" fill="white"/>
<path d="M12.9712 17.6173V20.343H20.5424V17.6173H12.9712Z" fill="white"/>
</g>
</svg>
