<svg width="129" height="53" viewBox="0 0 129 53" fill="none" xmlns="http://www.w3.org/2000/svg">
<path d="M1.15234 46.0085L12.5326 27.743L16.0807 33.0443L8.00225 45.9247L1.15234 46.0085ZM12.7104 27.4564L25.0729 7.61523L33.6024 20.9649L30.1462 26.4573L25.1164 18.6386L19.619 27.4044L12.7104 27.4564Z" fill="#6F6F6F"/>
<path d="M46.4184 16.936L28.3036 46.0087L17.8301 30.3645L25.1344 30.3092L28.2601 34.9853L39.5683 17.0198L46.4184 16.936Z" fill="#6F6F6F"/>
<path d="M63.337 21.9579L61.8378 17.6378C61.7972 17.5099 61.7412 17.2886 61.6757 16.98C61.607 16.6683 61.5386 16.288 61.4638 15.836C61.3859 16.2692 61.3079 16.6588 61.2364 17.0017C61.1647 17.3478 61.1086 17.5752 61.0713 17.6906L59.6281 21.9579H63.337ZM54.8213 27.0448L59.9114 13.6728H63.1812L68.3429 27.0448H65.0918L64.004 24.2022H58.8236L57.8916 27.0448H54.8213ZM80.1876 17.1515C79.6078 16.634 79.0125 16.2568 78.4048 16.0169C77.7969 15.7768 77.1455 15.6553 76.4505 15.6553C75.0261 15.6553 73.8884 16.0824 73.0404 16.9333C72.1956 17.7873 71.7716 18.9313 71.7716 20.3681C71.7716 21.7741 72.1644 22.8867 72.9501 23.7127C73.7354 24.5387 74.8076 24.9503 76.1667 24.9503C76.9397 24.9503 77.6598 24.8193 78.3238 24.5606C78.9878 24.302 79.6018 23.9155 80.169 23.3981L80.1503 26.331C79.5424 26.6895 78.9035 26.9576 78.2365 27.1352C77.5694 27.3129 76.8681 27.4001 76.1324 27.4001C74.0004 27.4001 72.2517 26.7392 70.8864 25.4144C69.5181 24.0898 68.8356 22.4065 68.8356 20.368C68.8356 18.3357 69.5213 16.6588 70.8896 15.3372C72.258 14.0156 74.0223 13.3547 76.1823 13.3547C76.9085 13.3547 77.6067 13.4295 78.2832 13.5822C78.9566 13.7349 79.6236 13.9687 80.2814 14.2867L80.1876 17.1515ZM87.8336 16.1041V27.0448H84.9723V16.1041H81.6993V13.6728H91.1064V16.1041H87.8336ZM93.0326 27.0448V13.6728H95.8941V27.0448H93.0326ZM112.629 20.3869C112.629 21.3437 112.452 22.2477 112.097 23.0987C111.738 23.9529 111.227 24.701 110.557 25.3462C109.865 26.0101 109.083 26.5183 108.21 26.8705C107.34 27.2226 106.439 27.4004 105.507 27.4004C104.694 27.4004 103.893 27.2633 103.113 26.9859C102.331 26.7085 101.614 26.3096 100.962 25.7921C100.121 25.122 99.4787 24.3239 99.0299 23.392C98.5842 22.46 98.3597 21.4594 98.3597 20.3872C98.3597 19.424 98.5375 18.5232 98.8896 17.6784C99.2418 16.8368 99.7592 16.0856 100.442 15.428C101.112 14.7766 101.888 14.2716 102.773 13.9131C103.659 13.5546 104.572 13.3739 105.507 13.3739C106.439 13.3739 107.346 13.5546 108.225 13.9131C109.104 14.2716 109.88 14.7766 110.556 15.428C111.233 16.0858 111.747 16.8368 112.099 17.6848C112.451 18.5295 112.629 19.4298 112.629 20.3869ZM105.507 24.8568C106.72 24.8568 107.72 24.4328 108.509 23.582C109.297 22.734 109.693 21.6712 109.693 20.39C109.693 19.1245 109.294 18.0586 108.496 17.1951C107.698 16.3318 106.701 15.8983 105.507 15.8983C104.295 15.8983 103.291 16.3284 102.493 17.1919C101.695 18.0523 101.296 19.1182 101.296 20.39C101.296 21.6805 101.689 22.7496 102.474 23.5911C103.26 24.436 104.273 24.8568 105.507 24.8568ZM115.039 27.0448V13.6728H118.01L123.929 21.456C124.097 21.6742 124.284 21.9827 124.49 22.3816C124.692 22.7807 124.904 23.2512 125.126 23.7938C125.058 23.3978 125.008 23.0053 124.979 22.6154C124.948 22.2258 124.933 21.7366 124.933 21.1536V13.6728H127.663V27.0448H124.858L118.773 19.1152C118.605 18.8971 118.418 18.5885 118.219 18.1896C118.016 17.7905 117.804 17.3137 117.58 16.7589C117.645 17.1454 117.695 17.5319 117.723 17.9246C117.754 18.3174 117.77 18.813 117.77 19.4084V27.0451L115.039 27.0448Z" fill="#6F6F6F"/>
<path d="M54.8213 40.1629V31.6936H56.6335V35.093H60.3056V31.6936H62.1178V40.1629H60.3056V36.6211H56.6335V40.1629H54.8213ZM63.999 40.1629V31.6936H68.9857V33.2217H65.8112V34.9629H68.9857V36.5028H65.8112V38.623H68.9857V40.1629H63.999ZM75.1471 36.9409L74.1975 34.2047C74.172 34.1238 74.1363 33.9836 74.095 33.7881C74.0517 33.5908 74.008 33.35 73.9609 33.0638C73.9116 33.3382 73.8621 33.5848 73.8167 33.8022C73.7714 34.0213 73.7359 34.1654 73.7121 34.2383L72.7982 36.9409H75.1471ZM69.7537 40.1629L72.9774 31.6936H75.0484L78.3175 40.1629H76.2585L75.5695 38.3623H72.2884L71.6983 40.1629H69.7537ZM79.2042 40.1629V31.6936H81.0163V38.623H83.9063V40.1629H79.2042Z" fill="#6F6F6F"/>
<path d="M87.5601 33.2334V40.1628H85.7477V33.2334H83.6748V31.6935H89.6327V33.2334H87.5601ZM90.8174 40.1628V31.6935H92.6296V35.0929H96.3017V31.6935H98.1139V40.1628H96.3017V36.621H92.6296V40.1628H90.8174ZM103.634 40.1628V31.6935H105.446V35.0929H109.118V31.6935H110.93V40.1628H109.118V36.621H105.446V40.1628H103.634ZM120.096 31.5752V36.8482C120.096 37.9953 119.794 38.8541 119.188 39.4205C118.582 39.9871 117.67 40.2694 116.45 40.2694C115.212 40.2694 114.29 39.9871 113.684 39.4205C113.078 38.8541 112.776 37.9953 112.776 36.8482V31.5752H114.577V36.5639C114.577 37.2628 114.731 37.7879 115.039 38.1412C115.348 38.4945 115.809 38.6702 116.422 38.6702C117.038 38.6702 117.506 38.4925 117.822 38.137C118.138 37.7818 118.296 37.2586 118.296 36.5636V31.575L120.096 31.5752ZM123.78 38.7533H124.491C124.944 38.7533 125.29 38.6546 125.525 38.4551C125.76 38.2557 125.876 37.9656 125.876 37.5846C125.876 37.2253 125.76 36.9508 125.528 36.7634C125.294 36.5739 124.956 36.479 124.515 36.479H123.78V38.7533ZM123.78 35.0815H124.185C124.731 35.0815 125.118 35.0045 125.346 34.8506C125.573 34.6966 125.687 34.4379 125.687 34.0748C125.687 33.7195 125.579 33.4667 125.361 33.3167C125.142 33.1665 124.764 33.0917 124.218 33.0917H123.78V35.0815ZM121.968 40.163V31.6937H123.555C124.374 31.6937 124.974 31.7254 125.355 31.7886C125.735 31.854 126.062 31.9585 126.341 32.1044C126.668 32.2939 126.921 32.5426 127.1 32.8507C127.28 33.1606 127.369 33.5101 127.369 33.899C127.369 34.4004 127.221 34.8032 126.925 35.1072C126.626 35.4092 126.185 35.6107 125.594 35.7112C126.278 35.812 126.793 36.0329 127.142 36.3764C127.492 36.7199 127.665 37.176 127.665 37.7465C127.665 38.1631 127.564 38.5421 127.365 38.8876C127.163 39.2333 126.889 39.4996 126.538 39.689C126.226 39.8589 125.859 39.9794 125.438 40.0523C125.018 40.1253 124.323 40.1628 123.352 40.1628H123.166L121.968 40.163Z" fill="#6F6F6F"/>
</svg>
