<svg width="157" height="53" viewBox="0 0 157 53" fill="none" xmlns="http://www.w3.org/2000/svg">
<mask id="mask0_43_596" style="mask-type:luminance" maskUnits="userSpaceOnUse" x="1" y="14" width="156" height="26">
<path d="M156.087 14.072H1.25146V39.5514H156.087V14.072Z" fill="white"/>
</mask>
<g mask="url(#mask0_43_596)">
<path d="M154.559 22.6229H150.205C149.848 22.6229 149.621 22.8475 149.621 23.2009V37.7022C149.621 38.0556 149.848 38.2803 150.205 38.2803H154.559C154.917 38.2803 155.145 38.0556 155.145 37.7022V23.2009C155.145 22.8475 154.917 22.6229 154.559 22.6229ZM152.382 21.0145C154.201 21.0145 155.567 19.6353 155.567 17.8399C155.567 16.1404 154.201 14.7612 152.382 14.7612C150.563 14.7612 149.165 16.1404 149.165 17.8399C149.165 19.6353 150.563 21.0145 152.382 21.0145ZM133.521 30.4499C133.521 32.4481 134.893 33.8665 136.787 33.8665C138.684 33.8665 140.022 32.4481 140.022 30.4499C140.022 28.452 138.684 27.0006 136.787 27.0006C134.893 27.0006 133.521 28.452 133.521 30.4499ZM127.902 30.4499C127.902 25.5177 131.529 22.004 135.351 22.004C136.975 22.004 138.316 22.4965 139.36 23.4295C139.598 23.6436 140.022 23.4859 140.022 23.1648C140.022 22.8098 140.251 22.5836 140.612 22.5836H144.989C145.349 22.5836 145.578 22.8098 145.578 23.1648V37.7352C145.578 38.0901 145.349 38.3147 144.989 38.3147H140.612C140.251 38.3147 140.022 38.0885 140.022 37.7352C140.022 37.4038 139.583 37.2403 139.335 37.4599C138.297 38.3782 136.963 38.863 135.351 38.863C131.529 38.863 127.902 35.3821 127.902 30.4499ZM125.388 37.7352V28.1614C125.388 23.5198 122.709 22.004 119.932 22.004C118.263 22.004 116.858 22.5108 115.836 23.4679C115.558 23.7291 114.999 23.5468 114.999 23.1648C114.999 22.8098 114.77 22.5836 114.41 22.5836H110.032C109.673 22.5836 109.444 22.8098 109.444 23.1648V37.7352C109.444 38.0901 109.673 38.3147 110.032 38.3147H114.41C114.77 38.3147 114.999 38.0885 114.999 37.7352V29.3536C115.032 27.3556 116.176 26.4838 117.612 26.4838C119.047 26.4838 119.834 27.2253 119.834 29.2892V37.7352C119.834 38.0901 120.064 38.3147 120.423 38.3147H124.799C125.158 38.3147 125.388 38.0885 125.388 37.7352ZM74.952 30.4499C74.952 32.4481 76.2903 33.8665 78.1867 33.8665C80.0825 33.8665 81.4532 32.4481 81.4532 30.4499C81.4532 28.452 80.0809 27.0006 78.1867 27.0006C76.292 27.0006 74.952 28.452 74.952 30.4499ZM69.3011 30.4499C69.3011 25.8084 72.9922 22.004 78.1867 22.004C83.3807 22.004 87.1041 25.8084 87.1041 30.4499C87.1041 35.0916 83.3807 38.863 78.1867 38.863C72.9922 38.863 69.3011 35.0916 69.3011 30.4499ZM100.301 22.004C98.6315 22.004 97.2271 22.5108 96.2056 23.4679C95.9268 23.7291 95.3687 23.5468 95.3687 23.1648C95.3687 22.8098 95.141 22.5836 94.78 22.5836H90.4023C90.0424 22.5836 89.8132 22.8098 89.8132 23.1648V37.7352C89.8132 38.0901 90.0408 38.3147 90.4023 38.3147H94.78C95.1395 38.3147 95.3687 38.0885 95.3687 37.7352V29.3536C95.4005 27.3556 96.545 26.4838 97.9823 26.4838C99.4194 26.4838 100.204 27.2253 100.204 29.2892V37.7352C100.204 38.0901 100.434 38.3147 100.793 38.3147H105.171C105.53 38.3147 105.759 38.0885 105.759 37.7352V28.1614C105.759 23.5198 103.08 22.004 100.303 22.004M61.8242 38.3164C61.4641 38.3164 61.2364 38.0901 61.2364 37.7368V28.7427C61.2364 27.2268 60.4853 26.4853 59.3089 26.4853C57.9367 26.4853 56.9245 27.3556 56.8912 29.3552V37.7368C56.8912 38.0918 56.662 38.3164 56.3035 38.3164H51.926C51.5662 38.3164 51.3386 38.0901 51.3386 37.7368V28.7427C51.3386 27.2268 50.5539 26.4853 49.2804 26.4853C48.0068 26.4853 46.9929 27.3556 46.961 29.3552V37.7368C46.961 38.0918 46.7318 38.3164 46.3736 38.3164H41.9961C41.6363 38.3164 41.4071 38.0901 41.4071 37.7368V23.1664C41.4071 22.8114 41.6363 22.5852 41.9961 22.5852H46.3736C46.7335 22.5852 46.961 22.8114 46.961 23.1664C46.961 23.5098 47.4585 23.6699 47.7035 23.4293C48.6455 22.5045 49.9307 22.0056 51.4691 22.0056C53.4621 22.0056 55.1923 22.714 56.1732 24.6805C57.2188 22.9402 59.0479 22.0056 61.3672 22.0056C64.1117 22.0056 66.7905 23.5213 66.7905 28.163V37.7368C66.7905 38.0918 66.5613 38.3164 66.2018 38.3164H61.8242ZM17.6729 23.1161V36.9483C17.6729 37.4147 18.2443 37.6471 18.5786 37.3189L33.346 22.7454C33.6804 22.4155 34.2518 22.6496 34.2518 23.1161V37.7996C34.2518 38.0886 34.0147 38.3227 33.7217 38.3227H2.26231C1.78953 38.3227 1.55394 37.7587 1.88663 37.4288L16.7672 22.7454C17.1014 22.4155 17.6729 22.6496 17.6729 23.1161Z" fill="#6F6F6F"/>
</g>
</svg>
