<svg width="157" height="53" viewBox="0 0 157 53" fill="none" xmlns="http://www.w3.org/2000/svg">
<path d="M17.4521 44.1074V32.7919C18.909 32.2816 19.957 30.8921 19.957 29.262C19.957 27.1999 18.2794 25.5221 16.2173 25.5221C14.1552 25.5221 12.4775 27.1999 12.4775 29.262C12.4775 30.8921 13.5257 32.2827 14.9836 32.7919L14.9847 44.1074C13.5268 44.6164 12.4775 46.007 12.4775 47.6373C12.4775 49.6983 14.1552 51.3748 16.2173 51.3748C18.2794 51.3748 19.957 49.697 19.957 47.6373C19.957 46.007 18.909 44.6175 17.4521 44.1074ZM14.945 29.262C14.945 28.5606 15.516 27.9896 16.2173 27.9896C16.9187 27.9896 17.4897 28.5606 17.4897 29.262C17.4897 29.9632 16.9187 30.5344 16.2173 30.5344C15.516 30.5344 14.945 29.9632 14.945 29.262ZM16.2173 48.9086C15.516 48.9086 14.945 48.3374 14.945 47.6373C14.945 46.937 15.516 46.3649 16.2173 46.3649C16.9187 46.3649 17.4897 46.9359 17.4897 47.6373C17.4897 48.3387 16.9187 48.9086 16.2173 48.9086Z" fill="#6F6F6F"/>
<path d="M28.307 36.6299V22.5786C28.307 18.713 25.5072 15.4912 21.8314 14.8296C23.2518 13.3993 24.1321 11.4278 24.1321 9.2564C24.1321 4.89259 20.5812 1.34277 16.2162 1.34277C11.8513 1.34277 8.30261 4.89369 8.30261 9.2564C8.30261 11.4278 9.18178 13.3993 10.6032 14.8296C6.92642 15.4912 4.12765 18.713 4.12765 22.5786V36.6299C2.66974 37.1391 1.62158 38.5297 1.62158 40.1587C1.62158 42.2208 3.29929 43.8985 5.36137 43.8985C7.42345 43.8985 9.09895 42.2208 9.09895 40.1587C9.09895 38.5297 8.05079 37.1413 6.59397 36.6299V22.5786C6.59397 19.5966 9.01941 17.1722 12.0004 17.1722H20.4353C23.4163 17.1722 25.8418 19.5966 25.8418 22.5786V36.6299C24.3838 37.1391 23.3358 38.5297 23.3358 40.1587C23.3358 42.2208 25.0135 43.8985 27.0756 43.8985C29.1377 43.8985 30.8131 42.2208 30.8131 40.1587C30.8131 38.5297 29.7639 37.1413 28.307 36.6299ZM6.63153 40.1587C6.63153 40.8601 6.0605 41.4311 5.36026 41.4311C4.66002 41.4311 4.08789 40.8601 4.08789 40.1587C4.08789 39.4575 4.65891 38.8874 5.36026 38.8874C6.06161 38.8874 6.63153 39.4575 6.63153 40.1587ZM16.2162 14.7059C13.212 14.7059 10.7689 12.2617 10.7689 9.25751C10.7689 6.25331 13.212 3.81019 16.2162 3.81019C19.2205 3.81019 21.6647 6.25331 21.6647 9.25751C21.6647 12.2617 19.2205 14.7059 16.2162 14.7059ZM27.0745 41.4311C26.3731 41.4311 25.8021 40.8601 25.8021 40.1587C25.8021 39.4575 26.3731 38.8874 27.0745 38.8874C27.7757 38.8874 28.3458 39.4575 28.3458 40.1587C28.3458 40.8601 27.7746 41.4311 27.0745 41.4311Z" fill="#6F6F6F"/>
<path d="M41.2705 21.0235V24.5717H48.103V28.6192H41.2705V35.3734H37.0664V16.9778H48.2342V21.0252H41.2705V21.0235Z" fill="#6F6F6F"/>
<path d="M63.034 22.2316V35.3703H59.0922V34.1353C58.3818 35.108 57.0684 35.7382 55.3343 35.7382C52.6804 35.7382 50.4199 33.8458 50.4199 30.2991V22.2316H54.3617V29.7217C54.3617 31.3501 55.3872 32.1132 56.6477 32.1132C58.0922 32.1132 59.0922 31.2718 59.0922 29.4065V22.2316H63.034Z" fill="#6F6F6F"/>
<path d="M70.9143 26.0166V30.6687C70.9143 31.798 71.887 31.9037 73.6212 31.798V35.3719C68.47 35.8983 66.9726 34.3464 66.9726 30.6687V26.0166H64.8706V22.2333H66.9726V19.7376L70.9143 18.5554V22.235H73.6212V26.0184H70.9143V26.0166Z" fill="#6F6F6F"/>
<path d="M88.5486 22.2316V35.3703H84.6069V34.1353C83.8966 35.108 82.5832 35.7382 80.8491 35.7382C78.1951 35.7382 75.9346 33.8458 75.9346 30.2991V22.2316H79.8765V29.7217C79.8765 31.3501 80.9018 32.1132 82.1625 32.1132C83.607 32.1132 84.6069 31.2718 84.6069 29.4065V22.2316H88.5486Z" fill="#6F6F6F"/>
<path d="M99.3215 21.9696V26.4361C97.693 26.1737 95.3797 26.8296 95.3797 29.4324V35.3707H91.438V22.232H95.3797V24.5708C95.906 22.8095 97.6657 21.9696 99.3215 21.9696Z" fill="#6F6F6F"/>
<path d="M107.445 32.2188C108.522 32.2188 109.442 31.7979 109.968 31.2205L113.121 33.0329C111.834 34.8198 109.89 35.7398 107.393 35.7398C102.899 35.7398 100.114 32.7179 100.114 28.8016C100.114 24.8853 102.952 21.8635 107.103 21.8635C110.939 21.8635 113.777 24.8326 113.777 28.8016C113.777 29.3535 113.724 29.8799 113.619 30.379H104.291C104.79 31.7452 105.999 32.2188 107.444 32.2188H107.445ZM109.863 27.4354C109.442 25.9108 108.26 25.3589 107.077 25.3589C105.58 25.3589 104.58 26.0948 104.212 27.4354H109.863Z" fill="#6F6F6F"/>
<path d="M128.629 27.3042V35.3718H124.687V27.8818C124.687 26.2532 123.662 25.4901 122.401 25.4901C120.957 25.4901 119.957 26.3316 119.957 28.1968V35.37H116.015V22.2314H119.957V23.4664C120.667 22.4938 121.981 21.8635 123.715 21.8635C126.369 21.8635 128.629 23.756 128.629 27.3025V27.3042Z" fill="#6F6F6F"/>
<path d="M141.527 31.43C141.527 34.452 138.898 35.7398 136.06 35.7398C133.432 35.7398 131.435 34.7415 130.41 32.6122L133.825 30.6669C134.168 31.6652 134.904 32.2171 136.058 32.2171C137.004 32.2171 137.477 31.9274 137.477 31.4028C137.477 29.9583 131.013 30.7197 131.013 26.1732C131.013 23.3081 133.43 21.8635 136.164 21.8635C138.293 21.8635 140.184 22.8088 141.288 24.6758L137.924 26.4884C137.556 25.8053 137.029 25.3317 136.162 25.3317C135.479 25.3317 135.058 25.5941 135.058 26.0676C135.058 27.5649 141.523 26.5667 141.523 31.4283L141.527 31.43Z" fill="#6F6F6F"/>
<path d="M150.039 32.2188C151.116 32.2188 152.036 31.7979 152.562 31.2205L155.715 33.0329C154.427 34.8198 152.483 35.7398 149.986 35.7398C145.493 35.7398 142.708 32.7179 142.708 28.8016C142.708 24.8853 145.545 21.8635 149.697 21.8635C153.533 21.8635 156.371 24.8326 156.371 28.8016C156.371 29.3535 156.318 29.8799 156.212 30.379H146.884C147.384 31.7452 148.593 32.2188 150.037 32.2188H150.039ZM152.456 27.4354C152.036 25.9108 150.853 25.3589 149.671 25.3589C148.174 25.3589 147.174 26.0948 146.806 27.4354H152.456Z" fill="#6F6F6F"/>
</svg>
