<svg width="157" height="53" viewBox="0 0 157 53" fill="none" xmlns="http://www.w3.org/2000/svg">
<mask id="mask0_43_588" style="mask-type:luminance" maskUnits="userSpaceOnUse" x="0" y="14" width="157" height="25">
<path d="M156.561 14.0477H0.618652V38.6701H156.561V14.0477Z" fill="white"/>
</mask>
<g mask="url(#mask0_43_588)">
<path fill-rule="evenodd" clip-rule="evenodd" d="M12.5132 17.1863C18.3529 17.1863 23.2204 21.3178 24.3591 26.8172L24.3605 26.7977C24.3808 26.5128 24.4008 26.2342 24.4008 25.9423C24.4077 19.3735 19.0819 14.0477 12.5132 14.0477C5.94447 14.0477 0.618652 19.3735 0.618652 25.9423C0.618652 26.2339 0.639484 26.5255 0.660315 26.8172C1.80602 21.3178 6.67355 17.1863 12.5132 17.1863ZM12.8431 36.5104C9.12815 36.5104 5.71879 35.219 3.02464 33.0803L2.95523 33.0479C2.85857 33.003 2.76002 32.9571 2.67051 32.9067C4.75362 36.3578 8.52405 38.67 12.85 38.67C17.1758 38.67 20.9464 36.3578 23.0294 32.9067C22.9704 32.938 22.9114 32.9657 22.8524 32.9935C22.7934 33.0213 22.7343 33.0492 22.6753 33.0803C19.9742 35.2259 16.5717 36.5104 12.8568 36.5104H12.8431ZM110.667 15.4573C104.612 15.4573 100.376 20.0887 100.376 26.5117C100.376 32.8998 104.584 37.566 110.667 37.566C116.75 37.566 120.957 32.9276 120.957 26.5117C120.957 20.0956 116.722 15.4573 110.667 15.4573ZM110.667 17.9431C115.09 17.9431 118.257 21.5955 118.257 26.5117C118.257 31.4278 115.09 35.0801 110.667 35.0801C106.244 35.0801 103.078 31.4278 103.078 26.5117C103.078 21.5955 106.244 17.9431 110.667 17.9431ZM54.5531 37.2606H57.1013V15.7628H53.4143L46.2275 28.7892L39.0061 15.7628H35.3537V37.2606H37.9021V18.7972L44.811 31.5458H47.6093L54.5531 18.7695V37.2606ZM64.7194 31.2681H73.5032L75.6209 37.2606H78.4471L70.6771 15.7628H67.5454L59.7755 37.2606H62.6016L64.7194 31.2681ZM69.1078 18.9222L72.6422 28.8448H72.6352H65.5735L69.1078 18.9222ZM96.9388 15.7628V37.2606H94.2377V27.5879H83.8221V37.2606H81.1488V15.7628H83.8221V25.1021H94.2377V15.7628H96.9388ZM128.666 15.7628V30.414C128.666 35.3302 126.236 36.712 124.153 37.5729L123.382 37.8785L122.027 35.9759L122.701 35.6357C124.603 34.7122 125.986 33.8512 125.986 30.1363V15.7628H128.658H128.666ZM135.943 37.2606V15.7628H133.332V37.2606H135.943ZM156.489 15.7628V37.2606H153.941L143.13 20.3943V37.2606H140.61V15.7628H143.157L153.97 32.6291V15.7628H156.489Z" fill="#6F6F6F"/>
<path fill-rule="evenodd" clip-rule="evenodd" d="M12.5132 17.1863C18.3529 17.1863 23.2204 21.3178 24.3591 26.8172L24.3605 26.7977C24.3808 26.5128 24.4008 26.2342 24.4008 25.9423C24.4077 19.3735 19.0819 14.0477 12.5132 14.0477C5.94447 14.0477 0.618652 19.3735 0.618652 25.9423C0.618652 26.2339 0.639484 26.5255 0.660315 26.8172C1.80602 21.3178 6.67355 17.1863 12.5132 17.1863ZM12.8431 36.5104C9.12815 36.5104 5.71879 35.219 3.02464 33.0803L2.95523 33.0479C2.85857 33.003 2.76002 32.9571 2.67051 32.9067C4.75362 36.3578 8.52405 38.67 12.85 38.67C17.1758 38.67 20.9464 36.3578 23.0294 32.9067C22.9704 32.938 22.9114 32.9657 22.8524 32.9935C22.7934 33.0213 22.7343 33.0492 22.6753 33.0803C19.9742 35.2259 16.5717 36.5104 12.8568 36.5104H12.8431ZM110.667 15.4573C104.612 15.4573 100.376 20.0887 100.376 26.5117C100.376 32.8998 104.584 37.566 110.667 37.566C116.75 37.566 120.957 32.9276 120.957 26.5117C120.957 20.0956 116.722 15.4573 110.667 15.4573ZM110.667 17.9431C115.09 17.9431 118.257 21.5955 118.257 26.5117C118.257 31.4278 115.09 35.0801 110.667 35.0801C106.244 35.0801 103.078 31.4278 103.078 26.5117C103.078 21.5955 106.244 17.9431 110.667 17.9431ZM54.5531 37.2606H57.1013V15.7628H53.4143L46.2275 28.7892L39.0061 15.7628H35.3537V37.2606H37.9021V18.7972L44.811 31.5458H47.6093L54.5531 18.7695V37.2606ZM64.7194 31.2681H73.5032L75.6209 37.2606H78.4471L70.6771 15.7628H67.5454L59.7755 37.2606H62.6016L64.7194 31.2681ZM69.1078 18.9222L72.6422 28.8448H72.6352H65.5735L69.1078 18.9222ZM96.9388 15.7628V37.2606H94.2377V27.5879H83.8221V37.2606H81.1488V15.7628H83.8221V25.1021H94.2377V15.7628H96.9388ZM128.666 15.7628V30.414C128.666 35.3302 126.236 36.712 124.153 37.5729L123.382 37.8785L122.027 35.9759L122.701 35.6357C124.603 34.7122 125.986 33.8512 125.986 30.1363V15.7628H128.658H128.666ZM135.943 37.2606V15.7628H133.332V37.2606H135.943ZM156.489 15.7628V37.2606H153.941L143.13 20.3943V37.2606H140.61V15.7628H143.157L153.97 32.6291V15.7628H156.489Z" fill="#6F6F6F"/>
</g>
</svg>
