<svg width="149" height="53" viewBox="0 0 149 53" fill="none" xmlns="http://www.w3.org/2000/svg">
<path d="M52.8734 35.5674C50.4836 35.5674 48.6523 35.0461 47.3769 34.001C46.1016 32.9572 45.3537 31.542 45.1333 29.7552L48.9272 28.9727C49.4089 31.0615 50.7238 32.1053 52.8721 32.1053C55.0204 32.1053 56.1249 31.4033 56.1249 29.9979C56.1249 29.4357 55.9739 28.9689 55.673 28.5975C55.3721 28.226 54.9746 27.9598 54.4831 27.8001C53.9903 27.6391 53.4331 27.4893 52.8115 27.3481C52.1886 27.2082 51.551 27.0918 50.8997 27.0014C50.2471 26.911 49.6094 26.7352 48.9879 26.4739C48.365 26.2139 47.8078 25.8969 47.3163 25.5255C46.8235 25.154 46.4272 24.6018 46.1264 23.8687C45.8255 23.1357 45.6744 22.2677 45.6744 21.2635C45.6744 19.6576 46.2923 18.2819 47.5268 17.1378C48.7613 15.9937 50.5332 15.4216 52.8424 15.4216C55.1517 15.4216 56.8221 15.9231 57.9773 16.9273C59.1313 17.9315 59.8297 19.2465 60.0699 20.8723L56.3057 21.505C55.9045 19.6378 54.7097 18.7041 52.7223 18.7041C51.759 18.7041 51 18.9196 50.449 19.3517C49.8967 19.7839 49.6206 20.351 49.6206 21.053C49.6206 21.6548 49.8162 22.1328 50.2075 22.4832C50.5988 22.8348 51.1003 23.0849 51.7132 23.236C52.3249 23.3858 53.0084 23.522 53.7612 23.6421C54.514 23.7622 55.2669 23.9282 56.0197 24.1387C56.7725 24.3492 57.4548 24.6352 58.0677 24.9967C58.6794 25.3583 59.1821 25.9155 59.5734 26.6683C59.9646 27.4212 60.1603 28.3498 60.1603 29.4543C60.1603 31.4627 59.5127 32.9832 58.2175 34.0171C56.9223 35.0511 55.1406 35.5674 52.8721 35.5674H52.8734Z" fill="#6F6F6F"/>
<path d="M69.7687 20.75C70.9933 20.75 72.047 21.1871 72.9311 22.06C73.8139 22.9329 74.256 24.243 74.256 25.9901V35.2049H70.5525V27.0735C70.5525 25.2472 69.8393 24.3334 68.4141 24.3334C67.4706 24.3334 66.5568 24.6751 65.6739 25.3574V35.2049H61.9395V15.781H65.6739V23.0989C66.818 21.5325 68.1838 20.75 69.7699 20.75H69.7687Z" fill="#6F6F6F"/>
<path d="M82.4153 35.5675C80.267 35.5675 78.5807 34.905 77.3561 33.5801C76.1315 32.2552 75.5186 30.4487 75.5186 28.1592C75.5186 26.0109 76.1463 24.239 77.4006 22.8436C78.655 21.4481 80.2655 20.751 82.2342 20.751C84.4027 20.751 86.0944 21.4134 87.3086 22.7383C88.5236 24.0632 89.1303 25.8698 89.1303 28.1592C89.1303 30.3075 88.5027 32.0794 87.2482 33.4749C85.9938 34.8703 84.3818 35.5675 82.4138 35.5675H82.4153ZM79.4041 28.1592C79.4041 30.9303 80.3769 32.3147 82.3248 32.3147C84.2727 32.3147 85.2462 30.9291 85.2462 28.1592C85.2462 26.7538 85.014 25.71 84.5528 25.0265C84.0908 24.3443 83.3479 24.0025 82.324 24.0025C80.3761 24.0025 79.4026 25.3881 79.4026 28.158L79.4041 28.1592Z" fill="#6F6F6F"/>
<path d="M98.0161 20.7495C99.803 20.7495 101.208 21.4169 102.232 22.7517C103.256 24.0878 103.768 25.8683 103.768 28.0971C103.768 30.3259 103.2 32.203 102.067 33.5477C100.932 34.8937 99.5221 35.5648 97.8358 35.5648C96.2695 35.5648 95.0839 34.9927 94.2821 33.8486V40.504H90.5474V21.1098H93.92L94.0105 22.7059L94.2821 22.826C95.1249 21.4405 96.3693 20.7483 98.0161 20.7483V20.7495ZM97.0828 32.2847C97.9658 32.2847 98.653 31.9343 99.1452 31.231C99.6374 30.5289 99.8835 29.4839 99.8835 28.0983C99.8835 26.8539 99.6467 25.9055 99.1762 25.2529C98.7049 24.6004 98.0262 24.2735 97.1432 24.2735C95.9785 24.2735 95.0251 24.645 94.2821 25.3879V31.049C95.0444 31.8724 95.9785 32.2835 97.0828 32.2835V32.2847Z" fill="#6F6F6F"/>
<path d="M116.177 24.997C117.541 25.2187 118.631 25.735 119.444 26.5473C120.258 27.3608 120.664 28.4195 120.664 29.7245C120.664 31.411 120.036 32.747 118.782 33.7302C117.527 34.7146 115.715 35.2061 113.346 35.2061H105.576V15.781H112.593C114.962 15.781 116.765 16.1921 117.999 17.0155C119.234 17.8389 119.851 19.0028 119.851 20.5085C119.851 22.4958 118.627 23.9111 116.178 24.7543V24.9958L116.177 24.997ZM112.562 19.0945H109.641V23.5818H112.502C113.447 23.5818 114.214 23.3812 114.806 22.98C115.398 22.5788 115.695 22.0266 115.695 21.3233C115.695 19.8374 114.651 19.0945 112.564 19.0945H112.562ZM113.224 31.8927C115.393 31.8927 116.477 31.0098 116.477 29.2429C116.477 28.4405 116.165 27.8177 115.544 27.3757C114.921 26.9336 114.068 26.7132 112.985 26.7132H109.641V31.8927H113.224Z" fill="#6F6F6F"/>
<path d="M128.282 35.5675C126.134 35.5675 124.447 34.905 123.222 33.5801C121.998 32.2552 121.385 30.4487 121.385 28.1592C121.385 26.0109 122.013 24.239 123.267 22.8436C124.521 21.4481 126.132 20.751 128.101 20.751C130.269 20.751 131.96 21.4134 133.175 22.7383C134.39 24.0632 134.996 25.8698 134.996 28.1592C134.996 30.3075 134.369 32.0794 133.114 33.4749C131.861 34.8703 130.248 35.5675 128.281 35.5675H128.282ZM125.27 28.1592C125.27 30.9303 126.244 32.3147 128.192 32.3147C130.139 32.3147 131.112 30.9291 131.112 28.1592C131.112 26.7538 130.881 25.71 130.419 25.0265C129.957 24.3443 129.214 24.0025 128.19 24.0025C126.242 24.0025 125.269 25.3881 125.269 28.158L125.27 28.1592Z" fill="#6F6F6F"/>
<path d="M133.854 35.2059L138.823 27.9178L134.456 21.1113H138.883L140.509 24.062L141.08 25.2668H141.261L141.863 24.062L143.61 21.1113H147.826L143.248 27.737L148.188 35.2059H143.73L141.592 31.6225L141.049 30.5081H140.839L140.206 31.6225L138.038 35.2059H133.852H133.854Z" fill="#6F6F6F"/>
<path d="M26.2917 7.88599C10.2754 8.17078 0.330058 16.6166 0.632182 22.9922C0.867443 27.9426 7.3334 32.732 15.3248 35.201C18.98 26.0964 22.6365 16.9906 26.2917 7.88599Z" fill="#6F6F6F"/>
<path d="M13.3691 47.4049C29.3867 47.1201 39.332 38.6742 39.0287 32.2986C38.7934 27.3483 32.3274 22.5588 24.336 20.0898C20.6808 29.1944 17.0244 38.3003 13.3691 47.4049Z" fill="#6F6F6F"/>
</svg>
