<svg width="157" height="53" viewBox="0 0 157 53" fill="none" xmlns="http://www.w3.org/2000/svg">
<mask id="mask0_43_580" style="mask-type:luminance" maskUnits="userSpaceOnUse" x="0" y="9" width="157" height="34">
<path d="M156.646 9.79614H0.483398V42.9215H156.646V9.79614Z" fill="white"/>
</mask>
<g mask="url(#mask0_43_580)">
<path fill-rule="evenodd" clip-rule="evenodd" d="M138.374 37.8195V22.1688V17.1976H147.302C149.149 17.1976 150.736 17.5013 152.073 18.0999C153.409 18.6985 154.442 19.5574 155.171 20.6765C155.9 21.7957 156.264 23.1318 156.264 24.6847C156.264 26.2203 155.9 27.5389 155.171 28.6494C154.442 29.76 153.409 30.6102 152.073 31.2L152.03 31.2175L156.637 37.8284H151.484L147.527 32.085H147.302H143.147V37.8284H138.374V37.8195ZM124.806 38.1753C123.175 38.1753 121.674 37.915 120.311 37.3945C118.95 36.874 117.761 36.1366 116.746 35.1736C115.731 34.2106 114.95 33.0826 114.386 31.7813C113.822 30.4888 113.545 29.0572 113.545 27.513C113.545 25.96 113.822 24.5373 114.386 23.2444C114.95 21.9519 115.74 20.8153 116.755 19.8524C117.778 18.8894 118.976 18.1519 120.347 17.6314C121.717 17.1109 123.236 16.8506 124.884 16.8506C126.714 16.8506 128.354 17.1542 129.821 17.7615C131.287 18.3688 132.518 19.2537 133.517 20.4163L130.454 23.2444C129.707 22.455 128.892 21.8738 128.007 21.4921C127.122 21.1103 126.159 20.9195 125.118 20.9195C124.121 20.9195 123.201 21.0756 122.377 21.388C121.553 21.7003 120.841 22.1514 120.243 22.7413C119.644 23.3314 119.184 24.0253 118.854 24.8322C118.533 25.639 118.368 26.5327 118.368 27.513C118.368 28.476 118.533 29.3608 118.854 30.1676C119.176 30.9745 119.644 31.6772 120.243 32.2758C120.841 32.8745 121.553 33.3344 122.368 33.6467C123.184 33.959 124.086 34.1151 125.066 34.1151C126.011 34.1151 126.932 33.959 127.825 33.6553C128.146 33.5425 128.467 33.4124 128.78 33.2476V27.1919H133.143V35.564C132.024 36.4055 130.722 37.0562 129.239 37.5072C127.755 37.9498 126.281 38.1753 124.806 38.1753ZM51.037 38.1753C49.4059 38.1753 47.9049 37.915 46.5429 37.3945C45.1808 36.874 43.9923 36.1366 42.9772 35.1736C41.9621 34.2106 41.1813 33.0826 40.6174 31.7813C40.0536 30.4888 39.7759 29.0572 39.7759 27.513C39.7759 25.96 40.0536 24.5373 40.6174 23.2444C41.1813 21.9519 41.9708 20.8153 42.9858 19.8524C44.0097 18.8894 45.2069 18.1519 46.5775 17.6314C47.9484 17.1109 49.4666 16.8506 51.115 16.8506C52.9455 16.8506 54.5852 17.1542 56.0513 17.7615C57.5176 18.3688 58.7496 19.2537 59.7472 20.4163L56.6847 23.2444C55.9386 22.455 55.1232 21.8738 54.2382 21.4921C53.3534 21.1103 52.3903 20.9195 51.3493 20.9195C50.3514 20.9195 49.4319 21.0756 48.6077 21.388C47.7836 21.7003 47.072 22.1514 46.4734 22.7413C45.8749 23.3314 45.4151 24.0253 45.0854 24.8322C44.7644 25.639 44.5996 26.5327 44.5996 27.513C44.5996 28.476 44.7644 29.3608 45.0854 30.1676C45.4064 30.9745 45.8749 31.6772 46.4734 32.2758C47.072 32.8745 47.7836 33.3344 48.599 33.6467C49.4145 33.959 50.3168 34.1151 51.2972 34.1151C52.2427 34.1151 53.1624 33.959 54.056 33.6553C54.3771 33.5425 54.698 33.4124 55.0103 33.2476V27.1919H59.3742V35.564C58.2549 36.4055 56.9537 37.0562 55.4702 37.5072C53.9866 37.9498 52.5031 38.1753 51.037 38.1753ZM71.8237 38.0625C70.1319 38.0625 68.6397 37.7069 67.3298 37.0041C66.0196 36.2927 64.9959 35.3297 64.2326 34.0977C63.4777 32.8658 63.096 31.469 63.096 29.8988C63.096 28.3111 63.4777 26.8971 64.2326 25.6737C64.9873 24.4505 66.0196 23.4875 67.3298 22.7848C68.6397 22.0907 70.1319 21.7349 71.8237 21.7349C73.4893 21.7349 74.9903 22.082 76.3003 22.7848C77.619 23.4787 78.6514 24.4417 79.3975 25.6564C80.1437 26.871 80.5166 28.285 80.5166 29.8988C80.5166 31.469 80.1437 32.8658 79.3975 34.0977C78.6514 35.3297 77.619 36.2927 76.3003 37.0041C74.9903 37.7069 73.4981 38.0625 71.8237 38.0625ZM71.8237 34.2886C72.5871 34.2886 73.2812 34.1151 73.8886 33.7594C74.4958 33.4038 74.9817 32.9004 75.3287 32.2412C75.6843 31.5819 75.8578 30.8011 75.8578 29.8988C75.8578 28.9792 75.6843 28.1896 75.3287 27.5389C74.9729 26.8882 74.4958 26.3937 73.8886 26.0381C73.2812 25.6825 72.5959 25.5089 71.8237 25.5089C71.0602 25.5089 70.3662 25.6825 69.7589 26.0381C69.1517 26.3937 68.6658 26.8882 68.3014 27.5389C67.937 28.1896 67.7548 28.9705 67.7548 29.8988C67.7548 30.8011 67.937 31.5819 68.3014 32.2412C68.6658 32.9004 69.1517 33.4038 69.7589 33.7594C70.3749 34.1064 71.0602 34.2886 71.8237 34.2886ZM89.4959 37.8195H84.7243V17.1976H100.314V21.0322H89.4959V26.4806H99.0392V30.3152H89.4959V37.8195ZM104.366 37.8195V17.1976H109.138V37.8195H104.366ZM143.147 28.2764H147.033C148.508 28.2764 149.61 27.9554 150.33 27.3222C151.058 26.6801 151.423 25.804 151.423 24.6847C151.423 23.5481 151.058 22.6633 150.33 22.03C149.601 21.4053 148.498 21.0843 147.033 21.0843H143.147V28.2764Z" fill="#6F6F6F"/>
<path fill-rule="evenodd" clip-rule="evenodd" d="M6.38186 10.0148C4.76819 10.0148 3.45817 11.3248 3.45817 12.9385C3.45817 14.5521 4.76819 15.8621 6.38186 15.8621C7.99552 15.8621 9.29687 14.5521 9.29687 12.9385C9.29687 11.3248 7.98685 10.0148 6.38186 10.0148ZM27.7326 29.5262C26.0408 30.9231 24.0541 32.0074 21.9026 32.7449C20.4277 33.2482 18.8748 33.5864 17.2872 33.7513V42.7132H12.9753V33.7427V29.4047V24.4163C12.9753 18.647 13.678 15.1507 16.1593 12.8864C18.5798 10.6915 22.3017 10.0929 28.3746 10.0929V14.4046C23.4034 14.4046 20.4971 14.7603 19.057 16.079C17.6775 17.337 17.2872 19.9224 17.2872 24.425V29.4135C18.4063 29.2746 19.4908 29.0231 20.5231 28.6674C22.1975 28.0948 23.7157 27.2705 24.9998 26.2123L27.7326 29.5262ZM10.8411 33.4129C9.49641 33.1354 8.18639 32.7276 6.96311 32.1984C4.42117 31.1139 2.19153 29.5176 0.482422 27.5048L3.7618 24.7287C5.02846 26.2209 6.71153 27.4094 8.63752 28.2423C9.34025 28.5459 10.0777 28.7975 10.8324 28.9972V33.4129H10.8411Z" fill="#6F6F6F"/>
</g>
</svg>
