<svg width="129" height="53" viewBox="0 0 129 53" fill="none" xmlns="http://www.w3.org/2000/svg">
<mask id="mask0_43_586" style="mask-type:luminance" maskUnits="userSpaceOnUse" x="1" y="8" width="127" height="37">
<path d="M127.652 8.4491H1.21143V44.2689H127.652V8.4491Z" fill="white"/>
</mask>
<g mask="url(#mask0_43_586)">
<path d="M36.4569 28.6901C36.3399 29.3813 36.2688 30.0832 36.0975 30.7598C35.6283 32.6234 34.5561 34.0658 32.9374 35.102C32.818 35.1792 32.6998 35.2574 32.5418 35.36C32.8289 36.0173 33.1124 36.6662 33.4441 37.4261C31.6094 36.5698 29.8703 35.7568 28.096 34.9295C28.6605 33.0756 29.2189 31.2447 29.8159 29.2847C30.1646 30.0482 30.4673 30.7091 30.7651 31.3593C33.2498 30.936 35.135 28.9229 35.3534 26.4732C35.3956 26.004 35.4172 25.5264 35.3786 25.0585C35.2689 23.7244 34.4909 23.0298 33.1328 22.9947C31.9979 22.9646 30.9629 23.3458 29.945 23.7812C29.3926 24.0176 28.8619 24.3057 28.3107 24.5494C28.0224 24.6773 27.9259 24.857 27.9271 25.1767C27.9404 27.9761 27.9344 30.7755 27.9344 33.575C27.9344 36.7761 27.9344 39.9772 27.9344 43.1781C27.9344 44.0164 27.6919 44.2601 26.8645 44.2601C21.5394 44.2601 16.2131 44.2505 10.8881 44.2685C9.84841 44.2722 9.61562 43.9549 9.60356 42.9575C9.57099 40.2449 9.59271 37.5311 9.59271 34.8184C9.59271 34.6616 9.59271 34.5048 9.59271 34.3264C8.80992 34.4723 8.06091 34.6351 7.30346 34.7485C6.34941 34.8909 5.39294 34.9174 4.43647 34.728C2.89865 34.4228 1.91324 33.5062 1.55261 32.0021C1.09186 30.0771 1.06171 28.1377 1.65875 26.2236C2.17859 24.5554 3.1833 23.2541 4.64755 22.3037C4.78022 22.218 4.9129 22.1336 5.04557 22.0479C5.05643 22.0407 5.06246 22.0249 5.10105 21.9719C4.82847 21.3483 4.54383 20.7007 4.20972 19.9372C6.05029 20.7935 7.78952 21.604 9.59391 22.4447V21.879C9.59391 17.8313 9.59752 13.7823 9.58908 9.73449C9.58908 9.19897 9.73141 8.75872 10.1873 8.44995H27.4133C27.8379 8.70927 27.9452 9.09161 27.944 9.57527C27.9295 13.4506 27.9368 17.3259 27.9368 21.2012C27.9368 21.3689 27.9368 21.5377 27.9368 21.7548C28.119 21.7186 28.242 21.6982 28.3637 21.6703C29.7557 21.3507 31.1595 21.1494 32.5865 21.387C34.2135 21.6584 35.4413 22.4326 35.808 24.1598C36.0541 25.3201 36.2434 26.4925 36.4581 27.6601V28.6937L36.4569 28.6901ZM24.1302 23.2359C25.1349 22.8367 26.0697 22.4423 27.0238 22.0986C27.3361 21.9863 27.4314 21.8489 27.4302 21.5244C27.4194 17.5623 27.423 13.6014 27.423 9.63921C27.423 8.97221 27.4133 8.96256 26.75 8.96256C21.5394 8.96256 16.3302 8.96256 11.1197 8.96256C10.5536 8.96256 10.2705 9.24358 10.2705 9.80565C10.2705 20.8008 10.2705 31.7959 10.2705 42.7898C10.2705 42.9044 10.2778 43.0201 10.2681 43.1347C10.2163 43.7475 10.2151 43.7487 10.8157 43.7487C16.1408 43.7487 21.4659 43.7487 26.791 43.7487C27.3916 43.7487 27.4218 43.7173 27.4218 43.1155C27.4218 37.2596 27.4218 31.4027 27.4218 25.547C27.4218 25.3973 27.4086 25.2478 27.4001 25.0524C27.2035 25.1597 27.0515 25.2345 26.908 25.3226C26.1047 25.8232 25.3135 26.3418 24.4981 26.8217C24.211 26.9906 24.1218 27.1787 24.1229 27.5044C24.135 31.7102 24.1314 35.916 24.1302 40.1219C24.1302 40.7647 23.9867 40.9106 23.3547 40.9106C20.3261 40.9106 17.2976 40.9106 14.2689 40.9106C13.6513 40.9106 13.4765 40.7407 13.4765 40.1206C13.4753 30.9347 13.4753 21.7475 13.4765 12.5617C13.4765 11.9429 13.626 11.7934 14.2291 11.7934C17.2722 11.7934 20.3152 11.7934 23.3571 11.7934C24.0156 11.7934 24.1291 11.9079 24.1291 12.5713C24.1291 15.9449 24.1291 19.3172 24.1291 22.6908V23.2347L24.1302 23.2359ZM14.0626 28.6382C14.182 28.5863 14.2725 28.555 14.3569 28.5091C17.3204 26.9086 20.2803 25.3033 23.2509 23.7148C23.5344 23.5628 23.6261 23.4 23.6249 23.0876C23.614 19.6573 23.6176 16.2259 23.6176 12.7945V12.3397H14.0626V28.6382ZM14.0421 40.3775C14.2412 40.386 14.369 40.3968 14.4957 40.3968C17.3807 40.3968 20.2646 40.3896 23.1497 40.4065C23.5368 40.4089 23.6273 40.2944 23.6261 39.9204C23.6128 35.9015 23.6176 31.8839 23.6164 27.8652C23.6164 27.7324 23.6008 27.5997 23.5875 27.4056C23.3788 27.525 23.2329 27.6118 23.0846 27.6926C20.1983 29.2546 17.3156 30.8202 14.422 32.3664C14.1422 32.5159 14.0325 32.6606 14.0349 32.9792C14.0494 35.2901 14.0421 37.5998 14.0421 39.9108V40.3752V40.3775ZM7.83054 28.0907C7.52539 27.4032 7.27692 26.811 6.99348 26.2344C6.94282 26.1307 6.72692 26.0185 6.62079 26.045C4.19283 26.653 2.68396 28.3162 2.30644 30.7731C2.08813 32.1951 3.05666 33.2637 4.48472 33.1673C4.76937 33.1479 5.05402 33.101 5.33263 33.0394C6.71607 32.7367 7.97648 32.1191 9.23327 31.4944C9.49862 31.3617 9.60235 31.2122 9.60114 30.9057C9.58788 28.2523 9.59391 25.6 9.59271 22.9464C9.59271 22.8355 9.57461 22.7258 9.56497 22.6148C9.54445 22.6148 9.52396 22.6148 9.50345 22.6148C8.95706 24.4047 8.40949 26.1946 7.83054 28.0907ZM29.9137 30.796C29.5145 32.0963 29.1466 33.2673 28.8065 34.4458C28.7823 34.5302 28.9259 34.7208 29.0344 34.7739C29.7014 35.1043 30.3792 35.4107 31.0546 35.7243C31.4611 35.9136 31.8688 36.1005 32.3766 36.3357C32.2282 35.9944 32.1511 35.7496 32.022 35.535C31.8351 35.2237 31.9363 35.0657 32.2295 34.9042C34.4028 33.7003 35.5607 31.814 35.8286 29.3787C35.907 28.6624 35.8407 27.9303 35.8407 27.2066C35.1881 29.8082 33.4441 31.235 30.9546 31.8985C30.6192 31.9876 30.3998 31.8936 30.2671 31.574C30.1742 31.352 30.0681 31.1338 29.9137 30.796ZM7.74249 26.5673C8.15258 25.2213 8.5313 23.9802 8.91606 22.7149C7.7244 22.1589 6.5653 21.6186 5.28077 21.0191C5.4822 21.4907 5.62934 21.8368 5.7982 22.23C2.59832 23.8909 1.56949 26.6469 1.82278 30.0385C1.88188 30.024 1.90962 29.9927 1.91927 29.9553C2.55973 27.443 4.30742 26.1077 6.70039 25.4601C7.02725 25.372 7.25883 25.4674 7.3915 25.7905C7.48317 26.0137 7.5893 26.232 7.74129 26.5685L7.74249 26.5673ZM24.9672 24.2009C24.9757 24.7376 25.3991 25.1597 25.9226 25.1537C26.4544 25.1476 26.9019 24.6761 26.8803 24.1453C26.8585 23.622 26.4183 23.2167 25.8875 23.2288C25.3424 23.242 24.9577 23.6473 24.9672 24.2009Z" fill="#6F6F6F"/>
<path d="M42.526 24.8966C42.526 28.3505 50.6026 28.0582 50.6026 32.2028C50.6026 34.9658 48.3709 36.6132 45.2891 36.6132C43.6153 36.6132 41.915 36.1614 40.7459 35.3644L40.0021 35.6301L39.7363 32.2028C40.2411 33.4249 42.0743 36.3209 45.2891 36.3209C47.0692 36.3209 48.4506 35.391 48.4506 33.9563C48.4506 31.0072 40.0021 31.1402 40.0021 26.358C40.0021 23.5683 42.7651 22.4789 45.05 22.4789C46.4846 22.4789 47.813 22.9572 48.5834 23.4355L49.0882 23.1964L49.3274 26.1188C48.8226 24.6576 47.574 22.7181 45.05 22.7181C43.8012 22.7181 42.526 23.2495 42.526 24.8966ZM58.8445 36.188C59.0305 35.8957 59.854 35.7894 59.854 34.78V25.3217C59.854 24.3122 59.0305 24.2058 58.8445 23.9137L63.1484 22.9041V34.78C63.1484 35.7894 63.9721 35.8957 64.158 36.188H58.8445ZM51.9368 36.188C52.1228 35.8957 52.9464 35.7894 52.9464 34.78V16.5809C52.9464 15.5979 52.1228 15.4651 51.9368 15.1728L56.2409 14.1633C59.7743 13.3397 61.4216 13.0209 63.5736 14.3227C64.7425 15.04 65.4864 16.3418 65.4864 17.7765C65.4864 19.8754 63.7596 21.7085 61.5279 21.7085C60.412 21.7085 59.5087 20.7787 59.5087 19.7159C59.5087 18.6001 60.412 17.6702 61.5279 17.6702C62.6703 17.6702 63.5204 18.6001 63.5204 19.7159C63.5204 20.3004 63.3079 20.7787 62.9093 21.1506C64.2909 20.6193 65.2473 19.344 65.2473 17.7765C65.2473 16.395 64.5832 15.226 63.3876 14.5086C61.395 13.3131 59.854 13.5522 56.2409 14.4024V34.78C56.2409 35.7894 57.0645 35.8957 57.2503 36.188H51.9368ZM71.8237 35.7098C73.7631 36.3474 75.9683 35.6301 77.4295 34.4345C76.3934 35.8426 74.4805 36.6132 72.488 36.6132C68.5824 36.6132 65.4208 33.4515 65.4208 29.546C65.4208 25.6672 68.5824 22.4789 72.488 22.4789C74.1617 22.4789 75.9151 23.2229 76.9247 24.6841L75.1447 25.4281C74.9055 24.2058 73.8959 22.7447 72.488 22.7181C69.964 22.7181 68.8216 25.9594 68.8216 29.546C68.8216 32.0435 69.4857 34.8862 71.8237 35.7098ZM83.7245 22.7181C81.8646 22.7181 81.2005 25.4281 81.0943 28.563H86.1421C86.1155 25.0029 85.7967 22.7181 83.7245 22.7181ZM77.667 29.546C77.667 25.6937 80.2175 22.4789 83.7245 22.4789C86.7798 22.4789 89.2771 25.1358 89.2771 28.8022H81.0943C80.988 30.6354 81.2271 34.7268 83.6182 35.7364C85.5842 36.56 87.1516 35.5769 88.5332 34.4345C87.6564 35.7364 86.2485 36.6132 84.4683 36.6132C80.5629 36.6132 77.667 33.4515 77.667 29.546ZM94.7695 34.78C94.7695 35.7894 95.593 35.8957 95.779 36.188H90.4654C90.6514 35.8957 91.475 35.7894 91.475 34.78V25.3217C91.475 24.3388 90.6514 24.2058 90.4654 23.9137L94.7695 22.9041V34.78ZM91.1031 19.6894C91.1031 17.4311 94.796 16.0761 97.745 17.0857C99.7642 17.8031 101.677 19.7425 101.677 22.9041V24.7904C103.005 23.1432 104.679 22.4789 106.22 22.4789C108.532 22.4789 110.498 24.2058 110.498 26.7565V34.78C110.498 35.7894 111.321 35.8957 111.507 36.188H106.194C106.38 35.8957 107.203 35.7894 107.203 34.78V26.7565C107.203 24.8966 105.928 23.7543 104.414 23.7543C103.537 23.7808 102.66 24.2058 101.783 25.0826L101.677 25.1889V34.78C101.677 35.7894 102.501 35.8957 102.687 36.188H97.373C97.559 35.8957 98.3826 35.7894 98.3826 34.78V25.3217C98.3826 24.3388 97.559 24.2058 97.373 23.9137L99.7642 23.3557C100.8 23.1167 101.465 22.4259 101.252 21.4428C100.694 19.2643 99.2594 17.9093 97.6653 17.3514C95.9916 16.7669 94.1052 16.9529 92.83 17.6968C92.9096 17.6702 93.0159 17.6702 93.1221 17.6702C94.238 17.6702 95.1413 18.5735 95.1413 19.6894C95.1413 20.8052 94.238 21.7085 93.1221 21.7085C92.0063 21.7085 91.1031 20.8052 91.1031 19.6894ZM126.007 34.78C126.007 35.7894 126.83 35.8957 127.016 36.188H121.703C121.888 35.8957 122.712 35.7894 122.712 34.78V26.7565C122.712 24.8966 121.437 23.7543 119.923 23.7543C119.019 23.7808 118.036 24.2058 117.186 25.1889V34.78C117.186 35.7894 118.01 35.8957 118.196 36.188H112.882C113.068 35.8957 113.892 35.7894 113.892 34.78V25.3217C113.892 24.3122 113.068 24.2058 112.882 23.9137L117.186 22.9041V24.7904C118.514 23.1432 120.188 22.4789 121.729 22.4789C124.041 22.4789 126.007 24.2058 126.007 26.7565V34.78Z" fill="#6F6F6F"/>
</g>
</svg>
