<svg width="155" height="37" viewBox="0 0 155 37" fill="none" xmlns="http://www.w3.org/2000/svg">
<path d="M48.2588 14.2231H49.7079V20.7573H49.7447C50.4325 19.8532 51.5009 19.3081 52.6602 19.3081C55.1952 19.3081 56.7525 21.3911 56.7525 23.7983C56.7525 26.2056 55.1779 28.2885 52.6797 28.2885C51.5031 28.2885 50.4346 27.7996 49.7468 26.8762H49.7101V28.0527H48.2609V14.2231H48.2588ZM49.6344 23.7075C49.6344 25.3729 50.612 26.9474 52.4224 26.9474C54.2327 26.9474 55.2643 25.4443 55.2643 23.7249C55.2643 22.0053 54.1959 20.647 52.4051 20.647C50.7202 20.647 49.6344 22.1135 49.6344 23.7075Z" fill="#6F6F6F"/>
<path d="M62.6851 23.818C62.6851 21.3198 64.6576 19.3105 67.1557 19.3105C69.6539 19.3105 71.6286 21.3198 71.6286 23.818C71.6286 26.3161 69.6367 28.2908 67.1557 28.2908C64.675 28.2908 62.6851 26.3182 62.6851 23.818ZM64.1343 23.8007C64.1343 25.5397 65.3649 26.9498 67.1578 26.9498C68.951 26.9498 70.1817 25.5376 70.1817 23.8007C70.1817 22.0639 68.951 20.6515 67.1578 20.6515C65.3649 20.6515 64.1343 22.0812 64.1343 23.8007Z" fill="#6F6F6F"/>
<path d="M79.7362 20.5753H79.773C80.37 19.7599 81.1486 19.3079 82.1999 19.3079C84.5531 19.3079 85.0959 21.0101 85.0959 23.002V28.0524H83.6467V23.2551C83.6467 21.8795 83.5386 20.6466 81.8538 20.6466C79.8617 20.6466 79.7362 22.4939 79.7362 24.0143V28.0524H78.2871V19.5437H79.7362V20.5753Z" fill="#6F6F6F"/>
<path d="M98.8328 26.8762H98.7959C98.0907 27.7996 97.0226 28.2885 95.8632 28.2885C93.3651 28.2885 91.7905 26.171 91.7905 23.8157C91.7905 21.4602 93.3283 19.3081 95.8826 19.3081C97.0226 19.3081 98.1102 19.8511 98.7977 20.7573H98.8347V14.2231H100.284V28.0527H98.8347V26.8762H98.8328ZM93.2742 23.7075C93.2742 25.3729 94.2519 26.9474 96.0622 26.9474C97.8726 26.9474 98.9038 25.4443 98.9038 23.7249C98.9038 22.0053 97.8358 20.647 96.0427 20.647C94.3599 20.647 93.272 22.1135 93.272 23.7075H93.2742Z" fill="#6F6F6F"/>
<path d="M115.399 28.0524H113.949V26.8758H113.913C113.171 27.8168 112.174 28.2882 110.98 28.2882C108.481 28.2882 106.907 26.1707 106.907 23.8153C106.907 21.46 108.444 19.3079 110.999 19.3079C112.158 19.3079 113.208 19.8507 113.915 20.7569H113.952V19.5437H115.401V28.0524H115.399ZM108.393 23.7071C108.393 25.3726 109.37 26.9472 111.181 26.9472C112.991 26.9472 114.023 25.4439 114.023 23.7245C114.023 22.0049 112.954 20.6466 111.161 20.6466C109.478 20.6466 108.391 22.1131 108.391 23.7071H108.393Z" fill="#6F6F6F"/>
<path d="M122.672 14.2231H124.121V20.7573H124.158C124.846 19.8532 125.914 19.3081 127.074 19.3081C129.608 19.3081 131.166 21.3911 131.166 23.7983C131.166 26.2056 129.591 28.2885 127.093 28.2885C125.916 28.2885 124.847 27.7996 124.16 26.8762H124.123V28.0527H122.674V14.2231H122.672ZM124.048 23.7075C124.048 25.3729 125.025 26.9474 126.835 26.9474C128.646 26.9474 129.678 25.4443 129.678 23.7249C129.678 22.0053 128.609 20.647 126.818 20.647C125.133 20.647 124.048 22.1135 124.048 23.7075Z" fill="#6F6F6F"/>
<path d="M139.271 28.0527H137.822V14.2231H139.271V28.0527Z" fill="#6F6F6F"/>
<path d="M147.363 24.1057C147.38 25.6803 148.503 26.9477 150.15 26.9477C151.382 26.9477 152.18 26.2058 152.74 25.1915L153.971 25.8965C153.155 27.4171 151.779 28.2865 150.042 28.2865C147.508 28.2865 145.879 26.3486 145.879 23.9046C145.879 21.4604 147.346 19.3062 150.008 19.3062C152.67 19.3062 154.191 21.5685 154.046 24.1036H147.366L147.363 24.1057ZM152.524 22.8751C152.325 21.6443 151.293 20.6472 150.025 20.6472C148.759 20.6472 147.619 21.6422 147.437 22.8751H152.524Z" fill="#6F6F6F"/>
<path d="M10.5543 13.6045V15.7738L18.8447 11.8806L27.2346 15.8236V13.6022C27.2346 10.4877 29.7565 7.96359 32.8645 7.96359H37.0131L21.6802 0.813063C19.8829 -0.030461 17.8065 -0.030461 16.0113 0.813063L0.775879 7.96576H4.92431C8.03455 7.96576 10.5543 10.4899 10.5543 13.6045Z" fill="#6F6F6F"/>
<path d="M33.3317 36.3494H4.45713C2.424 36.3494 0.775879 34.6992 0.775879 32.6618V7.96582H4.92431C8.03455 7.96582 10.5543 10.4899 10.5543 13.6045V26.4585H27.2346V13.6045C27.2346 10.4899 29.7565 7.96582 32.8645 7.96582H37.0131V32.6618C37.0131 34.697 35.3648 36.3494 33.3317 36.3494Z" fill="#6F6F6F"/>
</svg>
