<svg width="18" height="9" viewBox="0 0 18 9" fill="none" xmlns="http://www.w3.org/2000/svg">
<path d="M0.314598 4.00834L0.315191 4.00767L3.94378 0.39656C4.21564 0.126034 4.65534 0.127042 4.92593 0.398916C5.19645 0.67076 5.19541 1.11045 4.92364 1.381L2.48734 3.80545H17.1942C17.5778 3.80545 17.8887 4.11634 17.8887 4.49989C17.8887 4.88345 17.5778 5.19434 17.1942 5.19434H2.48741L4.92356 7.61878C5.19541 7.8893 5.19645 8.32901 4.92593 8.60086C4.65534 8.87278 4.21556 8.87374 3.94378 8.60323L0.315191 4.99212L0.314524 4.99145C0.0425987 4.71997 0.0434132 4.27886 0.314598 4.00834Z" fill="#E8003D"/>
</svg>
