<svg width="18" height="9" viewBox="0 0 18 9" fill="none" xmlns="http://www.w3.org/2000/svg">
<path d="M17.6854 4.00834L17.6848 4.00767L14.0562 0.39656C13.7844 0.126034 13.3447 0.127042 13.0741 0.398916C12.8036 0.67076 12.8046 1.11045 13.0764 1.381L15.5127 3.80545H0.805773C0.422231 3.80545 0.111328 4.11634 0.111328 4.49989C0.111328 4.88345 0.422231 5.19434 0.805773 5.19434H15.5126L13.0764 7.61878C12.8046 7.8893 12.8036 8.32901 13.0741 8.60086C13.3447 8.87278 13.7844 8.87374 14.0562 8.60323L17.6848 4.99212L17.6855 4.99145C17.9574 4.71997 17.9566 4.27886 17.6854 4.00834Z" fill="#E8003D"/>
</svg>
