<svg width="445" height="143" viewBox="0 0 445 143" fill="none" xmlns="http://www.w3.org/2000/svg">
<g clip-path="url(#clip0_43_688)">
<path d="M152.336 41.9132C152.336 45.6351 153.534 48.8413 155.931 51.532C158.328 54.1085 161.409 55.3964 165.176 55.3964C168.942 55.3964 172.024 54.1085 174.421 51.532C176.818 48.8992 178.016 45.6916 178.016 41.9132C178.016 38.1339 176.818 34.9563 174.421 32.38C172.024 29.8035 168.942 28.5148 165.176 28.5148C161.409 28.5148 158.328 29.8328 155.931 32.4657C153.534 35.0422 152.336 38.1918 152.336 41.9132ZM167.059 17.35C173.679 17.35 179.214 19.7271 183.665 24.4784C188.117 29.1738 190.342 35.0142 190.342 41.9988C190.342 48.9849 188.117 54.8245 183.665 59.5193C179.214 64.1569 173.679 66.4753 167.059 66.4753C161.181 66.4753 156.33 64.1569 152.507 59.5193V65.3591H140.779V0.0876465H152.849V23.963C156.729 19.5549 161.465 17.35 167.059 17.35ZM231.91 60.9789C228.114 64.6439 222.879 66.4755 216.202 66.4755C209.526 66.4755 204.289 64.6289 200.494 60.9362C196.699 57.2434 194.802 52.1333 194.802 45.6061V18.5523H206.872V45.6061C206.872 48.5834 207.698 50.9597 209.354 52.7344C211.009 54.5097 213.292 55.3966 216.202 55.3966C219.113 55.3966 221.395 54.5097 223.05 52.7344C224.705 50.9597 225.533 48.5834 225.533 45.6061V18.5523H237.602V45.6061C237.602 52.1912 235.705 57.3155 231.91 60.9789ZM274.514 53.078L278.109 62.6112C274.228 65.1877 269.635 66.4755 264.328 66.4755C258.962 66.4755 254.911 64.916 252.172 61.7949C249.433 58.6753 248.064 54.08 248.064 48.0108V28.6872H240.444V18.5523H248.149V1.97718H260.134V18.5523H275.541V28.6872H260.134V47.2376C260.134 52.7342 262.33 55.4829 266.724 55.4829C269.121 55.4829 271.717 54.6817 274.514 53.078ZM311.297 53.078L314.892 62.6112C311.011 65.1877 306.417 66.4755 301.111 66.4755C295.745 66.4755 291.694 64.916 288.955 61.7949C286.215 58.6753 284.846 54.08 284.846 48.0108V28.6872H277.227V18.5523H284.932V1.97718H296.916V18.5523H312.324V28.6872H296.916V47.2376C296.916 52.7342 299.113 55.4829 303.507 55.4829C305.904 55.4829 308.5 54.6817 311.297 53.078ZM329.95 51.4461C332.402 54.0226 335.484 55.3105 339.194 55.3105C342.79 55.3105 345.842 54.0226 348.354 51.4461C350.865 48.7554 352.12 45.578 352.12 41.9129C352.12 38.2495 350.865 35.0999 348.354 32.4657C345.842 29.8892 342.79 28.6013 339.194 28.6013C335.484 28.6013 332.402 29.8892 329.95 32.4657C327.495 34.9857 326.269 38.1345 326.269 41.9129C326.269 45.6357 327.495 48.8133 329.95 51.4461ZM314.199 41.9129C314.199 34.9857 316.538 29.1738 321.218 24.479C325.954 19.6692 331.946 17.2643 339.194 17.2643C346.441 17.2643 352.433 19.6692 357.171 24.479C361.849 29.1738 364.19 34.9857 364.19 41.9129C364.19 48.899 361.849 54.7388 357.171 59.4336C352.433 64.1861 346.441 66.5618 339.194 66.5618C331.946 66.5618 325.954 64.1861 321.218 59.4336C316.538 54.7388 314.199 48.899 314.199 41.9129ZM381.173 65.3593H369.103V18.5523H380.916V25.0795C382.171 22.7325 384.111 20.8428 386.737 19.4113C389.361 17.9812 392.301 17.2645 395.553 17.2645C400.632 17.2645 404.94 18.9539 408.479 22.3316C412.018 25.7106 413.787 30.5198 413.787 36.7597V65.3593H401.717V40.0236C401.717 36.3602 400.832 33.5106 399.064 31.4781C397.294 29.4463 394.897 28.4293 391.873 28.4293C388.676 28.4293 386.095 29.5328 384.126 31.7361C382.157 33.9409 381.173 36.7897 381.173 40.2809V65.3593ZM176.475 99.169C176.475 95.5054 175.219 92.3272 172.709 89.6358C170.255 87.0028 167.144 85.6849 163.378 85.6849C159.554 85.6849 156.415 87.0028 153.963 89.6358C151.566 92.27 150.367 95.4474 150.367 99.169C150.367 102.947 151.593 106.155 154.048 108.788C156.501 111.422 159.612 112.739 163.378 112.739C167.144 112.739 170.255 111.422 172.709 108.788C175.219 106.097 176.475 102.891 176.475 99.169ZM176.304 81.3911V75.8079H187.774V122.615H176.304V117.204C172.309 121.556 167.344 123.731 161.409 123.731C154.675 123.731 149.139 121.384 144.803 116.689C140.465 111.995 138.297 106.097 138.297 98.9966C138.297 91.9542 140.493 86.1438 144.888 81.5627C149.282 76.925 154.789 74.6058 161.409 74.6058C167.23 74.6058 172.196 76.8685 176.304 81.3911ZM205.015 98.8252C205.015 102.72 206.241 105.898 208.695 108.358C211.206 110.878 214.288 112.137 217.941 112.137C221.591 112.137 224.674 110.878 227.185 108.358C229.639 105.839 230.867 102.662 230.867 98.8252C230.867 95.0459 229.639 91.9263 227.185 89.4634C224.674 86.9448 221.591 85.6849 217.941 85.6849C214.288 85.6849 211.206 86.9448 208.695 89.4634C206.241 91.9263 205.015 95.0459 205.015 98.8252ZM231.038 80.9616V75.8079H242.166V117.977C242.166 125.535 239.769 131.489 234.975 135.841C230.124 140.249 223.903 142.454 216.314 142.454C208.267 142.454 201.133 140.192 194.914 135.669L199.621 126.566C204.985 130.229 210.435 132.062 215.972 132.062C220.479 132.062 224.032 130.859 226.629 128.454C229.225 126.05 230.524 122.929 230.524 119.094V116.689C226.929 120.697 222.135 122.701 216.143 122.701C209.295 122.701 203.701 120.44 199.365 115.916C195.027 111.394 192.859 105.668 192.859 98.7393C192.859 91.812 195.141 86.0579 199.707 81.4768C204.272 76.8965 209.922 74.6058 216.656 74.6058C222.362 74.6058 227.156 76.7249 231.038 80.9616ZM271.586 84.6544C268.56 84.6544 265.978 85.5283 263.839 87.2742C261.699 89.0209 260.257 91.4109 259.516 94.4454H283.228C282.656 91.4109 281.344 89.0209 279.29 87.2742C277.235 85.5283 274.668 84.6544 271.586 84.6544ZM294.955 98.1382C294.955 99.5697 294.812 101.345 294.527 103.463H259.516C261.228 110.106 265.765 113.425 273.127 113.425C278.548 113.425 283.57 111.852 288.193 108.702L292.986 117.204C287.05 121.498 280.259 123.645 272.613 123.645C264.451 123.645 258.174 121.271 253.78 116.517C249.443 111.823 247.275 106.039 247.275 99.1688C247.275 92.0119 249.528 86.1436 254.038 81.5625C258.545 76.925 264.395 74.6058 271.586 74.6058C278.377 74.6058 283.969 76.7249 288.364 80.9616C292.757 85.1995 294.955 90.9234 294.955 98.1382ZM312.066 122.615H299.996V75.8079H311.809V82.3353C313.064 79.9881 315.004 78.0986 317.63 76.6671C320.254 75.2371 323.194 74.5201 326.446 74.5201C331.525 74.5201 335.834 76.2097 339.372 79.5872C342.911 82.9664 344.68 87.7754 344.68 94.0153V122.615H332.61V97.2792C332.61 93.6158 331.725 90.7664 329.957 88.7339C328.187 86.7019 325.79 85.6849 322.766 85.6849C319.569 85.6849 316.988 86.7884 315.019 88.9918C313.05 91.1967 312.066 94.0453 312.066 97.5365V122.615ZM373.878 123.645C366.688 123.645 360.752 121.356 356.073 116.775C351.451 112.253 349.139 106.383 349.139 99.169C349.139 91.9542 351.479 86.0858 356.159 81.5627C360.894 76.925 366.915 74.6058 374.22 74.6058C379.014 74.6058 383.365 75.7522 387.275 78.0413C391.183 80.3319 394.08 83.5381 395.964 87.6604L386.291 92.9854C383.436 88.2335 379.471 85.8565 374.392 85.8565C370.51 85.8565 367.343 87.145 364.89 89.7215C362.378 92.2415 361.124 95.3897 361.124 99.169C361.124 103.063 362.35 106.269 364.804 108.788C367.315 111.308 370.425 112.566 374.134 112.566C376.588 112.566 378.928 111.909 381.154 110.591C383.38 109.275 385.006 107.585 386.033 105.525L395.792 111.278C393.794 115.057 390.84 118.063 386.932 120.296C383.022 122.529 378.671 123.645 373.878 123.645Z" fill="#171717"/>
<path d="M420.39 106.297L431.005 75.8083H444.187L425.441 124.934C423.158 130.946 420.433 135.382 417.266 138.246C414.098 141.108 410.232 142.54 405.667 142.54C402.128 142.54 399.131 141.767 396.679 140.221L398.733 130.087C400.844 131.117 402.842 131.632 404.725 131.632C408.434 131.632 411.458 129.17 413.799 124.247L414.741 122.099L394.367 75.8083H408.32L420.39 106.297ZM427.632 24.9841H426.356V27.2962H427.632C428.53 27.2962 428.979 26.8925 428.979 26.0862C428.979 25.3516 428.53 24.9841 427.632 24.9841ZM431.14 26.1226C431.14 27.2847 430.609 28.1365 429.545 28.6819L431.317 31.8109H429.014L427.491 28.9672H426.356V31.8109H424.267V23.2424H428.164C429.014 23.2424 429.722 23.5084 430.289 24.0422C430.857 24.5761 431.14 25.2693 431.14 26.1226ZM422.742 32.4505C424.064 33.8019 425.671 34.4773 427.561 34.4773C429.427 34.4773 431.022 33.8019 432.345 32.4505C433.667 31.0761 434.329 29.4645 434.329 27.6157C434.329 25.7667 433.667 24.1551 432.345 22.7793C431.022 21.4301 429.427 20.754 427.561 20.754C425.671 20.754 424.064 21.4301 422.742 22.7793C421.442 24.1073 420.793 25.7189 420.793 27.6157C420.793 29.5123 421.442 31.1241 422.742 32.4505ZM421.147 21.2155C422.92 19.4374 425.057 18.5491 427.561 18.5491C430.066 18.5491 432.204 19.4374 433.975 21.2155C435.747 22.9458 436.634 25.0799 436.634 27.6157C436.634 30.1284 435.747 32.2726 433.975 34.0507C432.179 35.8053 430.041 36.6821 427.561 36.6821C425.081 36.6821 422.943 35.8053 421.147 34.0507C419.375 32.2726 418.49 30.1284 418.49 27.6157C418.49 25.0799 419.375 22.9458 421.147 21.2155Z" fill="#171717"/>
<path d="M122.574 61.307C122.574 95.1659 95.216 122.614 61.4683 122.614C27.7214 122.614 0.363281 95.1659 0.363281 61.307C0.363281 27.448 27.7214 0 61.4683 0C95.216 0 122.574 27.448 122.574 61.307Z" fill="#E8003D"/>
</g>
<defs>
<clipPath id="clip0_43_688">
<rect width="443.819" height="142.54" fill="white" transform="translate(0.363281)"/>
</clipPath>
</defs>
</svg>
