<svg width="27" height="21" viewBox="0 0 27 21" fill="none" xmlns="http://www.w3.org/2000/svg">
<path d="M5.0625 0.356934C3.92873 0.356796 2.82772 0.719124 1.9359 1.38586C1.04409 2.0526 0.413082 2.98514 0.144 4.03408L13.4989 10.9234L26.8571 4.03408C26.588 2.98497 25.9568 2.05229 25.0648 1.38553C24.1727 0.718775 23.0715 0.356556 21.9375 0.356934H5.0625ZM0 15.8926V6.39658L12.9634 13.0844C13.128 13.1694 13.3122 13.2139 13.4994 13.2139C13.6867 13.2139 13.8709 13.1694 14.0355 13.0844L27 6.39658V15.8926C27 17.1714 26.4666 18.3977 25.5172 19.3019C24.5678 20.2061 23.2802 20.7141 21.9375 20.7141H5.0625C3.71984 20.7141 2.43217 20.2061 1.48277 19.3019C0.533369 18.3977 0 17.1714 0 15.8926Z" fill="#E8003D"/>
</svg>
