<svg width="1280" height="206" viewBox="0 0 1280 206" fill="none" xmlns="http://www.w3.org/2000/svg">
<g opacity="0.1">
<path d="M49.1125 83.651C49.1125 91.0949 51.5101 97.5072 56.3025 102.889C61.0966 108.042 67.2601 110.617 74.7934 110.617C82.3259 110.617 88.489 108.042 93.2831 102.889C98.0771 97.6231 100.474 91.2079 100.474 83.651C100.474 76.0925 98.0771 69.7373 93.2831 64.5846C88.489 59.4316 82.3259 56.8543 74.7934 56.8543C67.2601 56.8543 61.0966 59.4904 56.3025 64.756C51.5101 69.9091 49.1125 76.2083 49.1125 83.651ZM78.5588 34.5246C91.7985 34.5246 102.87 39.279 111.772 48.7816C120.675 58.1723 125.126 69.8531 125.126 83.8224C125.126 97.7945 120.675 109.474 111.772 118.863C102.87 128.139 91.7985 132.775 78.5588 132.775C66.8025 132.775 57.1005 128.139 49.4557 118.863V130.543H26V0H50.1395V47.7508C57.8997 38.9346 67.3723 34.5246 78.5588 34.5246ZM208.262 121.783C200.67 129.113 190.2 132.776 176.846 132.776C163.493 132.776 153.02 129.083 145.429 121.697C137.838 114.311 134.045 104.091 134.045 91.037V36.9294H158.185V91.037C158.185 96.9914 159.838 101.744 163.149 105.293C166.459 108.844 171.025 110.618 176.846 110.618C182.667 110.618 187.231 108.844 190.542 105.293C193.851 101.744 195.507 96.9914 195.507 91.037V36.9294H219.646V91.037C219.646 104.207 215.851 114.456 208.262 121.783ZM293.47 105.981L300.66 125.047C292.897 130.2 283.711 132.776 273.097 132.776C262.366 132.776 254.264 129.657 248.786 123.415C243.307 117.175 240.569 107.985 240.569 95.8464V57.1991H225.33V36.9294H240.739V3.77908H264.708V36.9294H295.524V57.1991H264.708V94.2998C264.708 105.293 269.101 110.791 277.89 110.791C282.684 110.791 287.876 109.188 293.47 105.981ZM367.035 105.981L374.226 125.047C366.463 130.2 357.276 132.776 346.662 132.776C335.932 132.776 327.829 129.657 322.352 123.415C316.872 117.175 314.134 107.985 314.134 95.8464V57.1991H298.896V36.9294H314.305V3.77908H338.274V36.9294H369.09V57.1991H338.274V94.2998C338.274 105.293 342.666 110.791 351.455 110.791C356.249 110.791 361.442 109.188 367.035 105.981ZM404.34 102.717C409.246 107.87 415.41 110.446 422.83 110.446C430.021 110.446 436.125 107.87 441.148 102.717C446.171 97.3354 448.682 90.9806 448.682 83.6506C448.682 76.3238 446.171 70.0245 441.148 64.756C436.125 59.603 430.021 57.0273 422.83 57.0273C415.41 57.0273 409.246 59.603 404.34 64.756C399.431 69.796 396.979 76.0937 396.979 83.6506C396.979 91.0961 399.431 97.4513 404.34 102.717ZM372.84 83.6506C372.84 69.796 377.517 58.1723 386.878 48.7828C396.35 39.1631 408.334 34.3532 422.83 34.3532C437.323 34.3532 449.308 39.1631 458.783 48.7828C468.14 58.1723 472.822 69.796 472.822 83.6506C472.822 97.6227 468.14 109.302 458.783 118.692C449.308 128.197 437.323 132.948 422.83 132.948C408.334 132.948 396.35 128.197 386.878 118.692C377.517 109.302 372.84 97.6227 372.84 83.6506ZM506.787 130.543H482.647V36.9294H506.274V49.9837C508.783 45.2898 512.663 41.5103 517.915 38.6473C523.163 35.7872 529.043 34.3537 535.548 34.3537C545.706 34.3537 554.322 37.7324 561.4 44.4879C568.477 51.2458 572.015 60.8643 572.015 73.3441V130.543H547.876V79.8719C547.876 72.5451 546.105 66.8459 542.569 62.7808C539.029 58.7173 534.236 56.6833 528.186 56.6833C521.794 56.6833 516.631 58.8903 512.693 63.297C508.755 67.7065 506.787 73.4041 506.787 80.3865V130.543Z" fill="url(#paint0_linear_43_961)"/>
<path d="M599.701 49.7929H597.149V54.4171H599.701C601.498 54.4171 602.395 53.6096 602.395 51.997C602.395 50.5278 601.498 49.7929 599.701 49.7929ZM606.717 52.0699C606.717 54.394 605.656 56.0978 603.528 57.1885L607.072 63.4465H602.466L599.419 57.759H597.149V63.4465H592.971V46.3096H600.765C602.466 46.3096 603.882 46.8416 605.016 47.9092C606.152 48.9768 606.717 50.3633 606.717 52.0699ZM589.922 64.7256C592.566 67.4286 595.779 68.7794 599.56 68.7794C603.291 68.7794 606.481 67.4286 609.128 64.7256C611.772 61.9769 613.096 58.7537 613.096 55.0561C613.096 51.3581 611.772 48.1349 609.128 45.3833C606.481 42.6849 603.291 41.3328 599.56 41.3328C595.779 41.3328 592.566 42.6849 589.922 45.3833C587.321 48.0393 586.023 51.2624 586.023 55.0561C586.023 58.8494 587.321 62.0729 589.922 64.7256ZM586.732 42.2558C590.277 38.6995 594.551 36.9229 599.56 36.9229C604.569 36.9229 608.846 38.6995 612.388 42.2558C615.931 45.7164 617.705 49.9845 617.705 55.0561C617.705 60.0815 615.931 64.3699 612.388 67.9261C608.796 71.4353 604.519 73.1889 599.56 73.1889C594.599 73.1889 590.323 71.4353 586.732 67.9261C583.188 64.3699 581.418 60.0815 581.418 55.0561C581.418 49.9845 583.188 45.7164 586.732 42.2558Z" fill="url(#paint1_linear_43_961)"/>
<path d="M719.392 84.1627C719.392 76.8355 716.88 70.4791 711.858 65.0963C706.951 59.8302 700.73 57.1945 693.198 57.1945C685.55 57.1945 679.272 59.8302 674.367 65.0963C669.573 70.3648 667.175 76.7196 667.175 84.1627C667.175 91.7196 669.628 98.1348 674.537 103.4C679.443 108.669 685.666 111.302 693.198 111.302C700.73 111.302 706.951 108.669 711.858 103.4C716.88 98.0189 719.392 91.6066 719.392 84.1627ZM719.05 48.6068V37.4406H741.99V131.054H719.05V120.233C711.059 128.937 701.129 133.287 689.26 133.287C675.791 133.287 664.72 128.593 656.047 119.204C647.372 109.814 643.035 98.0189 643.035 83.8179C643.035 69.7331 647.427 58.1123 656.217 48.95C665.005 39.6747 676.019 35.0363 689.26 35.0363C700.901 35.0363 710.833 39.5617 719.05 48.6068ZM776.47 83.4751C776.47 91.2638 778.923 97.6202 783.832 102.541C788.854 107.581 795.017 110.098 802.323 110.098C809.624 110.098 815.788 107.581 820.812 102.541C825.719 97.5027 828.175 91.1479 828.175 83.4751C828.175 75.9165 825.719 69.6772 820.812 64.7515C815.788 59.7143 809.624 57.1945 802.323 57.1945C795.017 57.1945 788.854 59.7143 783.832 64.7515C778.923 69.6772 776.47 75.9165 776.47 83.4751ZM828.516 47.7479V37.4406H850.773V121.779C850.773 136.895 845.979 148.803 836.392 157.506C826.69 166.323 814.247 170.732 799.068 170.732C782.975 170.732 768.707 166.208 756.268 157.163L765.684 138.956C776.412 146.283 787.312 149.949 798.385 149.949C807.399 149.949 814.505 147.544 819.699 142.734C824.891 137.925 827.489 131.683 827.489 124.012V119.204C820.299 127.22 810.711 131.226 798.727 131.226C785.031 131.226 773.843 126.705 765.171 117.657C756.495 108.612 752.16 97.1599 752.16 83.3033C752.16 69.4487 756.723 57.9405 765.855 48.7782C774.986 39.6176 786.285 35.0363 799.754 35.0363C811.166 35.0363 820.754 39.2744 828.516 47.7479ZM909.613 55.1334C903.561 55.1334 898.398 56.8814 894.12 60.3732C889.839 63.8666 886.955 68.6464 885.474 74.7156H932.897C931.754 68.6464 929.13 63.8666 925.021 60.3732C920.912 56.8814 915.776 55.1334 909.613 55.1334ZM956.351 82.1011C956.351 84.9641 956.065 88.5147 955.495 92.75H885.474C888.897 106.036 897.971 112.675 912.695 112.675C923.536 112.675 933.582 109.528 942.827 103.229L952.413 120.233C940.542 128.822 926.96 133.116 911.668 133.116C895.344 133.116 882.789 128.366 874.002 118.859C865.327 109.471 860.992 97.903 860.992 84.1623C860.992 69.8486 865.498 58.1119 874.516 48.9496C883.531 39.6747 895.231 35.0363 909.613 35.0363C923.195 35.0363 934.378 39.2744 943.169 47.7479C951.956 56.2237 956.351 67.6716 956.351 82.1011ZM990.573 131.054H966.433V37.4406H990.06V50.4954C992.568 45.801 996.449 42.0219 1001.7 39.159C1006.95 36.2988 1012.83 34.8649 1019.33 34.8649C1029.49 34.8649 1038.11 38.2441 1045.19 44.9992C1052.26 51.7575 1055.8 61.3756 1055.8 73.8554V131.054H1031.66V80.3832C1031.66 73.0564 1029.89 67.3576 1026.35 63.2924C1022.81 59.2285 1018.02 57.1945 1011.97 57.1945C1005.58 57.1945 1000.42 59.4016 996.479 63.8082C992.542 68.2182 990.573 73.9154 990.573 80.8978V131.054ZM1114.2 133.116C1099.82 133.116 1087.94 128.537 1078.59 119.375C1069.34 110.33 1064.72 98.5906 1064.72 84.1627C1064.72 69.7331 1069.4 57.9964 1078.76 48.95C1088.23 39.6747 1100.27 35.0363 1114.88 35.0363C1124.47 35.0363 1133.17 37.3292 1140.99 41.9073C1148.81 46.4886 1154.6 52.9009 1158.37 61.1454L1139.02 71.7955C1133.31 62.2917 1125.38 57.5377 1115.22 57.5377C1107.46 57.5377 1101.13 60.1147 1096.22 65.2677C1091.2 70.3077 1088.69 76.6041 1088.69 84.1627C1088.69 91.951 1091.14 98.3633 1096.05 103.4C1101.07 108.44 1107.29 110.957 1114.71 110.957C1119.62 110.957 1124.3 109.643 1128.75 107.007C1133.2 104.375 1136.45 100.995 1138.51 96.8738L1158.03 108.382C1154.03 115.939 1148.12 121.951 1140.31 126.416C1132.49 130.883 1123.78 133.116 1114.2 133.116Z" fill="url(#paint2_linear_43_961)"/>
<path d="M1207.22 98.4183L1228.45 37.4414H1254.81L1217.32 135.692C1212.75 147.716 1207.3 156.588 1200.97 162.317C1194.63 168.04 1186.9 170.905 1177.77 170.905C1170.69 170.905 1164.7 169.358 1159.8 166.266L1163.9 145.998C1168.13 148.059 1172.12 149.09 1175.89 149.09C1183.3 149.09 1189.35 144.166 1194.04 134.319L1195.92 130.023L1155.17 37.4414H1183.08L1207.22 98.4183Z" fill="url(#paint3_linear_43_961)"/>
</g>
<rect y="170" width="1280" height="1" rx="0.5" fill="#BCBCBC"/>
<defs>
<linearGradient id="paint0_linear_43_961" x1="640" y1="145.5" x2="640" y2="27.5" gradientUnits="userSpaceOnUse">
<stop stop-opacity="0"/>
<stop offset="0.442308" stop-opacity="0.38"/>
<stop offset="1" stop-color="#171717"/>
</linearGradient>
<linearGradient id="paint1_linear_43_961" x1="640" y1="145.5" x2="640" y2="27.5" gradientUnits="userSpaceOnUse">
<stop stop-opacity="0"/>
<stop offset="0.442308" stop-opacity="0.38"/>
<stop offset="1" stop-color="#171717"/>
</linearGradient>
<linearGradient id="paint2_linear_43_961" x1="640" y1="145.5" x2="640" y2="27.5" gradientUnits="userSpaceOnUse">
<stop stop-opacity="0"/>
<stop offset="0.442308" stop-opacity="0.38"/>
<stop offset="1" stop-color="#171717"/>
</linearGradient>
<linearGradient id="paint3_linear_43_961" x1="640" y1="145.5" x2="640" y2="27.5" gradientUnits="userSpaceOnUse">
<stop stop-opacity="0"/>
<stop offset="0.442308" stop-opacity="0.38"/>
<stop offset="1" stop-color="#171717"/>
</linearGradient>
</defs>
</svg>
