<svg width="20" height="20" viewBox="0 0 20 20" fill="none" xmlns="http://www.w3.org/2000/svg">
<path d="M10.0353 7.27565C8.51122 7.27565 7.27663 8.51068 7.27663 10.0343C7.27663 11.5582 8.51168 12.7929 10.0353 12.7929C11.5592 12.7929 12.7939 11.5579 12.7939 10.0343C12.7939 8.51032 11.5589 7.27565 10.0353 7.27565ZM10.0353 5.43657C12.5736 5.43657 14.633 7.49367 14.633 10.0343C14.633 12.5727 12.5759 14.632 10.0353 14.632C7.49688 14.632 5.43754 12.5749 5.43754 10.0343C5.43754 7.49591 7.49465 5.43657 10.0353 5.43657ZM16.0123 5.2059C16.0123 5.84049 15.4966 6.35535 14.8628 6.35535C14.2283 6.35535 13.7134 5.83969 13.7134 5.2059C13.7134 4.57211 14.229 4.05726 14.8628 4.05726C15.4958 4.05646 16.0123 4.57211 16.0123 5.2059ZM10.0353 2.67795C7.75986 2.67795 7.38899 2.68397 6.33068 2.7311C5.60965 2.76495 5.12633 2.86192 4.67725 3.03626C4.27817 3.19104 3.99029 3.37586 3.68356 3.68259C3.37565 3.9905 3.19116 4.27761 3.03701 4.67687C2.86226 5.12698 2.76532 5.60954 2.73207 6.32958C2.68449 7.3448 2.67892 7.6996 2.67892 10.0343C2.67892 12.3097 2.68495 12.6805 2.73206 13.7387C2.76593 14.4595 2.86303 14.9435 3.03696 15.3915C3.19214 15.7911 3.37733 16.0797 3.68258 16.385C3.99171 16.6937 4.27967 16.8788 4.67514 17.0314C5.12969 17.2071 5.61272 17.3042 6.33055 17.3374C7.34577 17.385 7.70058 17.3906 10.0353 17.3906C12.3107 17.3906 12.6815 17.3845 13.7397 17.3374C14.4589 17.3037 14.9433 17.2063 15.3925 17.0325C15.791 16.8778 16.0805 16.6919 16.386 16.3869C16.6951 16.0773 16.8799 15.79 17.0327 15.3936C17.208 14.9408 17.3052 14.4571 17.3384 13.739C17.386 12.7237 17.3916 12.3689 17.3916 10.0343C17.3916 7.75889 17.3855 7.38803 17.3384 6.32978C17.3046 5.61042 17.2072 5.1253 17.0332 4.67627C16.8788 4.2783 16.6934 3.98953 16.3869 3.68259C16.0785 3.37418 15.7921 3.19007 15.3926 3.03604C14.9429 2.86143 14.4595 2.76435 13.7399 2.73111C12.7247 2.68351 12.3699 2.67795 10.0353 2.67795ZM10.0353 0.838867C12.5333 0.838867 12.8452 0.848063 13.8261 0.89404C14.8046 0.939253 15.472 1.09404 16.0583 1.32163C16.6643 1.55535 17.1762 1.87105 17.6873 2.38216C18.1977 2.89328 18.5134 3.40668 18.7479 4.01128C18.9747 4.59672 19.1295 5.26492 19.1755 6.24347C19.2192 7.22431 19.2307 7.53618 19.2307 10.0343C19.2307 12.5324 19.2215 12.8442 19.1755 13.8251C19.1303 14.8036 18.9747 15.4711 18.7479 16.0573C18.5142 16.6634 18.1977 17.1752 17.6873 17.6864C17.1762 18.1968 16.662 18.5124 16.0583 18.7469C15.472 18.9738 14.8046 19.1285 13.8261 19.1745C12.8452 19.2182 12.5333 19.2297 10.0353 19.2297C7.53716 19.2297 7.22528 19.2205 6.24444 19.1745C5.26589 19.1293 4.59923 18.9738 4.01226 18.7469C3.40689 18.5132 2.89424 18.1968 2.38314 17.6864C1.87203 17.1752 1.55709 16.6611 1.3226 16.0573C1.09502 15.4711 0.940993 14.8036 0.895016 13.8251C0.851338 12.8442 0.839844 12.5324 0.839844 10.0343C0.839844 7.53618 0.849039 7.22431 0.895016 6.24347C0.940221 5.26415 1.09502 4.59749 1.3226 4.01128C1.55631 3.40592 1.87203 2.89328 2.38314 2.38216C2.89424 1.87105 3.40766 1.55611 4.01226 1.32163C4.59846 1.09404 5.26513 0.940017 6.24444 0.89404C7.22528 0.850361 7.53716 0.838867 10.0353 0.838867Z" fill="white"/>
</svg>
