<svg width="21" height="27" viewBox="0 0 21 27" fill="none" xmlns="http://www.w3.org/2000/svg">
<path fill-rule="evenodd" clip-rule="evenodd" d="M9.66832 25.6675C9.66832 25.6675 0.59082 18.0225 0.59082 10.5C0.59082 7.84784 1.64439 5.3043 3.51975 3.42893C5.39512 1.55357 7.93866 0.5 10.5908 0.5C13.243 0.5 15.7865 1.55357 17.6619 3.42893C19.5373 5.3043 20.5908 7.84784 20.5908 10.5C20.5908 18.0225 11.5133 25.6675 11.5133 25.6675C11.0083 26.1325 10.1771 26.1275 9.66832 25.6675ZM10.5908 14.875C11.1654 14.875 11.7343 14.7618 12.2651 14.542C12.7959 14.3221 13.2782 13.9998 13.6844 13.5936C14.0907 13.1873 14.4129 12.705 14.6328 12.1742C14.8527 11.6434 14.9658 11.0745 14.9658 10.5C14.9658 9.92547 14.8527 9.35656 14.6328 8.82576C14.4129 8.29496 14.0907 7.81266 13.6844 7.40641C13.2782 7.00015 12.7959 6.67789 12.2651 6.45803C11.7343 6.23816 11.1654 6.125 10.5908 6.125C9.4305 6.125 8.3177 6.58594 7.49723 7.40641C6.67676 8.22688 6.21582 9.33968 6.21582 10.5C6.21582 11.6603 6.67676 12.7731 7.49723 13.5936C8.3177 14.4141 9.4305 14.875 10.5908 14.875Z" fill="#E8003D"/>
</svg>
