<svg width="137" height="44" viewBox="0 0 137 44" fill="none" xmlns="http://www.w3.org/2000/svg">
<path d="M46.9116 12.9379C46.9116 14.0868 47.2817 15.0765 48.0214 15.9071C48.7613 16.7025 49.7126 17.1 50.8753 17.1C52.0379 17.1 52.9891 16.7025 53.729 15.9071C54.469 15.0944 54.8388 14.1043 54.8388 12.9379C54.8388 11.7713 54.469 10.7904 53.729 9.99518C52.9891 9.19985 52.0379 8.80206 50.8753 8.80206C49.7126 8.80206 48.7613 9.20891 48.0214 10.0216C47.2817 10.817 46.9116 11.7892 46.9116 12.9379ZM51.4565 5.35564C53.4999 5.35564 55.2086 6.08944 56.5827 7.55609C57.9568 9.00548 58.6437 10.8083 58.6437 12.9644C58.6437 15.1209 57.9568 16.9235 56.5827 18.3727C55.2086 19.8042 53.4999 20.5199 51.4565 20.5199C49.642 20.5199 48.1445 19.8042 46.9646 18.3727V20.1753H43.3444V0.0270309H47.0702V7.397C48.2679 6.03628 49.7299 5.35564 51.4565 5.35564ZM71.4751 18.8232C70.3033 19.9546 68.6874 20.52 66.6264 20.52C64.5654 20.52 62.949 19.9499 61.7774 18.81C60.6058 17.6701 60.0203 16.0927 60.0203 14.0779V5.72679H63.7461V14.0779C63.7461 14.9969 64.0013 15.7305 64.5124 16.2783C65.0232 16.8263 65.7279 17.1001 66.6264 17.1001C67.5248 17.1001 68.2291 16.8263 68.7402 16.2783C69.251 15.7305 69.5065 14.9969 69.5065 14.0779V5.72679H73.2322V14.0779C73.2322 16.1106 72.6464 17.6924 71.4751 18.8232ZM84.6263 16.3843L85.7361 19.3271C84.5379 20.1224 83.1201 20.52 81.4819 20.52C79.8257 20.52 78.5753 20.0386 77.7297 19.0751C76.884 18.1121 76.4614 16.6936 76.4614 14.8202V8.85527H74.1095V5.72679H76.4878V0.610302H80.1872V5.72679H84.9434V8.85527H80.1872V14.5815C80.1872 16.2782 80.8651 17.1267 82.2216 17.1267C82.9616 17.1267 83.763 16.8794 84.6263 16.3843ZM95.9806 16.3843L97.0904 19.3271C95.8922 20.1224 94.4744 20.52 92.8362 20.52C91.18 20.52 89.9295 20.0386 89.084 19.0751C88.2383 18.1121 87.8157 16.6936 87.8157 14.8202V8.85527H85.4638V5.72679H87.8421V0.610302H91.5415V5.72679H96.2977V8.85527H91.5415V14.5815C91.5415 16.2782 92.2194 17.1267 93.5759 17.1267C94.3158 17.1267 95.1173 16.8794 95.9806 16.3843ZM101.738 15.8806C102.495 16.6759 103.447 17.0735 104.592 17.0735C105.702 17.0735 106.644 16.6759 107.419 15.8806C108.195 15.05 108.582 14.0692 108.582 12.9379C108.582 11.807 108.195 10.8348 107.419 10.0216C106.644 9.2263 105.702 8.82876 104.592 8.82876C103.447 8.82876 102.495 9.2263 101.738 10.0216C100.981 10.7995 100.602 11.7715 100.602 12.9379C100.602 14.087 100.981 15.0679 101.738 15.8806ZM96.8765 12.9379C96.8765 10.7995 97.5983 9.00548 99.0432 7.55628C100.505 6.07155 102.355 5.32919 104.592 5.32919C106.829 5.32919 108.679 6.07155 110.141 7.55628C111.585 9.00548 112.308 10.7995 112.308 12.9379C112.308 15.0943 111.585 16.897 110.141 18.3462C108.679 19.8132 106.829 20.5466 104.592 20.5466C102.355 20.5466 100.505 19.8132 99.0432 18.3462C97.5983 16.897 96.8765 15.0943 96.8765 12.9379ZM117.55 20.1754H113.824V5.72679H117.471V7.74164C117.858 7.01716 118.457 6.43382 119.268 5.99195C120.078 5.55051 120.985 5.32925 121.989 5.32925C123.557 5.32925 124.887 5.85074 125.979 6.8934C127.072 7.93643 127.618 9.42097 127.618 11.3471V20.1754H123.892V12.3547C123.892 11.2238 123.619 10.3442 123.073 9.71677C122.526 9.0896 121.787 8.77567 120.853 8.77567C119.866 8.77567 119.07 9.1163 118.462 9.79644C117.854 10.477 117.55 11.3564 117.55 12.4341V20.1754ZM54.3633 30.6119C54.3633 29.481 53.9756 28.5 53.2005 27.6692C52.443 26.8564 51.4829 26.4496 50.3204 26.4496C49.14 26.4496 48.171 26.8564 47.4139 27.6692C46.674 28.4823 46.3039 29.4631 46.3039 30.6119C46.3039 31.7783 46.6825 32.7684 47.4403 33.5811C48.1973 34.3943 49.1578 34.8006 50.3204 34.8006C51.4829 34.8006 52.443 34.3943 53.2005 33.5811C53.9756 32.7505 54.3633 31.7608 54.3633 30.6119ZM54.3105 25.1242V23.4007H57.8511V37.8493H54.3105V36.179C53.0771 37.5226 51.5445 38.1939 49.7126 38.1939C47.6338 38.1939 45.925 37.4694 44.5863 36.0202C43.2475 34.571 42.5781 32.7505 42.5781 30.5587C42.5781 28.3848 43.256 26.5912 44.6127 25.1771C45.969 23.7455 47.669 23.0296 49.7126 23.0296C51.5093 23.0296 53.0422 23.7281 54.3105 25.1242ZM63.1728 30.5058C63.1728 31.7079 63.5514 32.689 64.309 33.4485C65.0841 34.2264 66.0353 34.6149 67.1629 34.6149C68.2899 34.6149 69.2413 34.2264 70.0166 33.4485C70.7739 32.6708 71.153 31.69 71.153 30.5058C71.153 29.3392 70.7739 28.3762 70.0166 27.616C69.2413 26.8385 68.2899 26.4496 67.1629 26.4496C66.0353 26.4496 65.0841 26.8385 64.309 27.616C63.5514 28.3762 63.1728 29.3392 63.1728 30.5058ZM71.2057 24.9916V23.4007H74.6408V36.4177C74.6408 38.7507 73.9009 40.5886 72.4213 41.932C70.9239 43.2927 69.0034 43.9733 66.6607 43.9733C64.1768 43.9733 61.9747 43.275 60.0548 41.879L61.5081 39.0688C63.1638 40.1997 64.8462 40.7656 66.5551 40.7656C67.9464 40.7656 69.0432 40.3943 69.8449 39.6519C70.6461 38.9098 71.0472 37.9464 71.0472 36.7623V36.0202C69.9374 37.2574 68.4576 37.8758 66.6079 37.8758C64.4941 37.8758 62.7673 37.178 61.4289 35.7815C60.0898 34.3855 59.4207 32.6179 59.4207 30.4793C59.4207 28.3409 60.125 26.5647 61.5344 25.1506C62.9437 23.7367 64.6877 23.0296 66.7664 23.0296C68.5278 23.0296 70.0076 23.6838 71.2057 24.9916ZM83.7224 26.1315C82.7883 26.1315 81.9915 26.4013 81.3311 26.9402C80.6704 27.4794 80.2253 28.2171 79.9966 29.1538H87.316C87.1397 28.2171 86.7346 27.4794 86.1005 26.9402C85.4663 26.4013 84.6737 26.1315 83.7224 26.1315ZM90.9361 30.2937C90.9361 30.7356 90.8919 31.2836 90.8039 31.9373H79.9966C80.525 33.9879 81.9255 35.0126 84.198 35.0126C85.8713 35.0126 87.4218 34.5268 88.8487 33.5546L90.3283 36.179C88.4959 37.5047 86.3998 38.1674 84.0395 38.1674C81.52 38.1674 79.5823 37.4343 78.2261 35.967C76.8872 34.518 76.218 32.7326 76.218 30.6119C76.218 28.4027 76.9136 26.5912 78.3055 25.1771C79.6969 23.7455 81.5027 23.0296 83.7224 23.0296C85.8186 23.0296 87.5447 23.6838 88.9014 24.9916C90.2577 26.2998 90.9361 28.0667 90.9361 30.2937ZM96.2179 37.8493H92.4921V23.4007H96.1387V25.4156C96.5259 24.6911 97.1249 24.1078 97.9355 23.6659C98.7455 23.2245 99.653 23.0032 100.657 23.0032C102.225 23.0032 103.555 23.5247 104.647 24.5673C105.739 25.6104 106.285 27.0949 106.285 29.0211V37.8493H102.56V30.0286C102.56 28.8977 102.286 28.0182 101.741 27.3908C101.194 26.7635 100.454 26.4496 99.5208 26.4496C98.5342 26.4496 97.7373 26.7902 97.1295 27.4704C96.5217 28.151 96.2179 29.0303 96.2179 30.108V37.8493ZM115.298 38.1674C113.079 38.1674 111.247 37.4608 109.802 36.0467C108.375 34.6507 107.662 32.8388 107.662 30.6119C107.662 28.3848 108.384 26.5734 109.829 25.1771C111.291 23.7455 113.149 23.0296 115.404 23.0296C116.884 23.0296 118.227 23.3835 119.434 24.0901C120.64 24.7972 121.534 25.7869 122.116 27.0594L119.13 28.7031C118.249 27.2363 117.025 26.5026 115.457 26.5026C114.259 26.5026 113.281 26.9003 112.524 27.6956C111.749 28.4735 111.361 29.4453 111.361 30.6119C111.361 31.814 111.74 32.8037 112.498 33.5811C113.272 34.359 114.232 34.7475 115.378 34.7475C116.135 34.7475 116.857 34.5445 117.544 34.1378C118.231 33.7316 118.733 33.2098 119.051 32.5738L122.063 34.3499C121.446 35.5163 120.534 36.4442 119.328 37.1334C118.121 37.8229 116.778 38.1674 115.298 38.1674Z" fill="black"/>
<path d="M129.655 32.8123L132.932 23.4009H137.001L131.214 38.5652C130.509 40.421 129.668 41.7903 128.691 42.6745C127.713 43.5578 126.519 44 125.11 44C124.018 44 123.093 43.7613 122.336 43.2841L122.97 40.1558C123.621 40.4739 124.238 40.633 124.819 40.633C125.964 40.633 126.898 39.873 127.62 38.3532L127.911 37.6902L121.622 23.4009H125.929L129.655 32.8123ZM131.89 7.71227H131.497V8.42599H131.89C132.168 8.42599 132.306 8.30136 132.306 8.05247C132.306 7.82571 132.168 7.71227 131.89 7.71227ZM132.973 8.06372C132.973 8.42243 132.809 8.68539 132.481 8.85374L133.028 9.8196H132.317L131.847 8.94179H131.497V9.8196H130.852V7.17465H132.055C132.317 7.17465 132.536 7.25676 132.711 7.42154C132.886 7.58632 132.973 7.80032 132.973 8.06372ZM130.381 10.017C130.789 10.4342 131.285 10.6427 131.869 10.6427C132.444 10.6427 132.937 10.4342 133.345 10.017C133.753 9.59278 133.958 9.09531 133.958 8.52461C133.958 7.95385 133.753 7.45637 133.345 7.03169C132.937 6.61521 132.444 6.40652 131.869 6.40652C131.285 6.40652 130.789 6.61521 130.381 7.03169C129.98 7.44162 129.779 7.93909 129.779 8.52461C129.779 9.11007 129.98 9.60761 130.381 10.017ZM129.889 6.54898C130.436 6.0001 131.095 5.72588 131.869 5.72588C132.642 5.72588 133.302 6.0001 133.848 6.54898C134.395 7.0831 134.669 7.74185 134.669 8.52461C134.669 9.30024 134.395 9.96212 133.848 10.511C133.294 11.0526 132.634 11.3233 131.869 11.3233C131.103 11.3233 130.443 11.0526 129.889 10.511C129.342 9.96212 129.069 9.30024 129.069 8.52461C129.069 7.74185 129.342 7.0831 129.889 6.54898Z" fill="black"/>
<path d="M37.7246 18.9245C37.7246 29.3762 29.2796 37.8491 18.8622 37.8491C8.44502 37.8491 0 29.3762 0 18.9245C0 8.47274 8.44502 -4.57764e-05 18.8622 -4.57764e-05C29.2796 -4.57764e-05 37.7246 8.47274 37.7246 18.9245Z" fill="#E8003D"/>
</svg>
