<svg width="25" height="26" viewBox="0 0 25 26" fill="none" xmlns="http://www.w3.org/2000/svg">
<path d="M16.8502 18.1375L18.9502 16.0375C19.233 15.7582 19.5909 15.567 19.9803 15.4871C20.3697 15.4072 20.774 15.4421 21.1439 15.5875L23.7033 16.6094C24.0772 16.7612 24.3978 17.0202 24.6247 17.3539C24.8516 17.6876 24.9746 18.0809 24.9783 18.4844V23.1719C24.9761 23.4464 24.9184 23.7176 24.8087 23.9692C24.6989 24.2208 24.5394 24.4476 24.3397 24.6359C24.14 24.8242 23.9043 24.9701 23.6467 25.065C23.3891 25.1598 23.1149 25.2015 22.8408 25.1875C4.90643 24.0719 1.28768 8.88441 0.603305 3.07191C0.571536 2.78648 0.600563 2.49755 0.688476 2.22414C0.776388 1.95073 0.921195 1.69903 1.11337 1.4856C1.30554 1.27218 1.54073 1.10186 1.80345 0.985848C2.06618 0.869841 2.35049 0.810776 2.63768 0.812538H7.16581C7.56988 0.813734 7.96435 0.935789 8.29849 1.163C8.63263 1.39022 8.89115 1.7122 9.0408 2.08754L10.0627 4.64691C10.2129 5.01542 10.2512 5.42002 10.1729 5.81017C10.0945 6.20033 9.90293 6.55875 9.62206 6.84066L7.52206 8.94066C7.52206 8.94066 8.73143 17.125 16.8502 18.1375Z" fill="#E8003D"/>
</svg>
