<svg width="19" height="16" viewBox="0 0 19 16" fill="none" xmlns="http://www.w3.org/2000/svg">
<path fill-rule="evenodd" clip-rule="evenodd" d="M18.2448 1.63778C18.2849 1.3944 18.259 1.14471 18.1698 0.914729C18.0806 0.684751 17.9314 0.4829 17.7376 0.330208C17.5439 0.177516 17.3128 0.0795706 17.0683 0.0465755C16.8239 0.0135805 16.575 0.0467435 16.3478 0.14261L0.62363 6.7633C-0.472462 7.22491 -0.528554 8.8102 0.62363 9.28836C1.76467 9.76378 2.92218 10.1987 4.09397 10.5923C5.168 10.9472 6.33949 11.2755 7.27834 11.3684C7.53489 11.6755 7.85765 11.9716 8.18685 12.2419C8.68984 12.6557 9.29489 13.0815 9.92018 13.4897C11.1726 14.3081 12.562 15.0907 13.4981 15.6001C14.6172 16.207 15.957 15.5081 16.1574 14.2879L18.2448 1.63778ZM2.38639 8.01663L16.2935 2.161L14.3459 13.9679C13.4273 13.4686 12.1041 12.721 10.9252 11.9504C10.3819 11.6016 9.85737 11.2243 9.35374 10.8203C9.21915 10.7103 9.08849 10.5956 8.96202 10.4764L12.6043 6.83502C12.7769 6.6626 12.8738 6.4287 12.8739 6.18477C12.874 5.94085 12.7772 5.70688 12.6048 5.53433C12.4324 5.36179 12.1985 5.26481 11.9545 5.26472C11.7106 5.26464 11.4766 5.36145 11.3041 5.53387L7.31604 9.52192C6.6411 9.43548 5.70133 9.18537 4.66961 8.84514C3.90153 8.58922 3.14048 8.31264 2.38731 8.01571L2.38639 8.01663Z" fill="white"/>
</svg>
