<svg width="23" height="25" viewBox="0 0 23 25" fill="none" xmlns="http://www.w3.org/2000/svg">
<path d="M14.2325 0.941406V5.43641C14.2325 6.04516 14.475 6.63016 14.9075 7.06141C15.3411 7.49312 15.9282 7.73539 16.54 7.73516H21.6963" stroke="#E8003D" stroke-width="1.5" stroke-linecap="round" stroke-linejoin="round"/>
<path d="M21.8125 8.21004V18.92C21.7877 19.6206 21.6245 20.3093 21.3323 20.9464C21.0401 21.5836 20.6247 22.1566 20.11 22.6325C19.5949 23.1106 18.9906 23.4826 18.3318 23.7271C17.6729 23.9716 16.9723 24.0839 16.27 24.0575H6.7825C6.07592 24.0898 5.36992 23.9823 4.70497 23.7412C4.04002 23.5001 3.42919 23.1302 2.9075 22.6525C2.38784 22.1754 1.96818 21.5997 1.67291 20.9589C1.37764 20.3181 1.21264 19.6251 1.1875 18.92V6.07754C1.21232 5.377 1.37553 4.68831 1.66772 4.05114C1.95992 3.41397 2.37533 2.84093 2.89 2.36504C3.4051 1.88694 4.00935 1.51501 4.66823 1.27051C5.32711 1.026 6.02771 0.913705 6.73 0.940036H13.8725C14.9628 0.936184 16.0153 1.33962 16.8238 2.07129L20.5237 5.47379C20.9186 5.81388 21.2374 6.23329 21.4594 6.70472C21.6814 7.17615 21.8018 7.68904 21.8125 8.21004Z" stroke="#E8003D" stroke-width="1.5" stroke-linecap="round" stroke-linejoin="round"/>
<path d="M11.5 10.624V19.0915" stroke="#E8003D" stroke-width="1.5" stroke-miterlimit="10" stroke-linecap="round"/>
<path d="M15.3822 14.1875L12.0509 10.8562C11.9789 10.7833 11.893 10.7254 11.7984 10.6859C11.7038 10.6463 11.6022 10.626 11.4997 10.626C11.3971 10.626 11.2956 10.6463 11.201 10.6859C11.1064 10.7254 11.0205 10.7833 10.9484 10.8562L7.61719 14.1887" stroke="#E8003D" stroke-width="1.5" stroke-linecap="round" stroke-linejoin="round"/>
</svg>
