<svg width="38" height="30" viewBox="0 0 38 30" fill="none" xmlns="http://www.w3.org/2000/svg">
<path d="M32.7288 5.68222C32.5881 5.13231 32.1903 4.7174 31.7347 4.58941C30.9251 4.3637 26.9949 3.84563 18.6872 3.84563C10.3794 3.84563 6.44997 4.3639 5.63716 4.59005C5.1858 4.71559 4.78802 5.13042 4.6455 5.68222C4.44464 6.46574 3.91789 9.74584 3.91789 14.9226C3.91789 20.0992 4.44464 23.3794 4.64605 24.1651C4.7861 24.7129 5.18395 25.1277 5.63764 25.2551C6.44997 25.4813 10.3794 25.9995 18.6872 25.9995C26.9949 25.9995 30.9251 25.4814 31.7371 25.2551C32.1885 25.1296 32.5863 24.7147 32.7288 24.1629C32.9297 23.3794 33.4564 20.0918 33.4564 14.9226C33.4564 9.75332 32.9297 6.46574 32.7288 5.68222ZM36.3054 4.76534C37.1487 8.05486 37.1487 14.9226 37.1487 14.9226C37.1487 14.9226 37.1487 21.7902 36.3054 25.0797C35.8355 26.8991 34.4644 28.329 32.7264 28.8123C29.5723 29.6918 18.6872 29.6918 18.6872 29.6918C18.6872 29.6918 7.80846 29.6918 4.64784 28.8123C2.9034 28.3223 1.53231 26.8923 1.06884 25.0797C0.225586 21.7902 0.225586 14.9226 0.225586 14.9226C0.225586 14.9226 0.225586 8.05486 1.06884 4.76534C1.53874 2.94605 2.90984 1.51611 4.64784 1.03275C7.80846 0.15332 18.6872 0.15332 18.6872 0.15332C18.6872 0.15332 29.5723 0.15332 32.7264 1.03275C34.4709 1.52283 35.842 2.95275 36.3054 4.76534ZM14.9949 21.3841V8.46101L26.0718 14.9226L14.9949 21.3841Z" fill="#B4B4B4"/>
</svg>
