<svg width="38" height="33" viewBox="0 0 38 33" fill="none" xmlns="http://www.w3.org/2000/svg">
<path fill-rule="evenodd" clip-rule="evenodd" d="M37.312 3.94903C37.3925 3.46039 37.3406 2.95909 37.1615 2.49736C36.9824 2.03564 36.6828 1.63039 36.2938 1.32383C35.9049 1.01727 35.4408 0.820623 34.9501 0.754379C34.4593 0.688135 33.9597 0.754716 33.5034 0.947187L1.93417 14.2395C-0.266449 15.1663 -0.379064 18.349 1.93417 19.309C4.22503 20.2635 6.54895 21.1367 8.90155 21.9269C11.0579 22.6395 13.4099 23.2986 15.2948 23.485C15.8099 24.1017 16.4579 24.6961 17.1188 25.2389C18.1286 26.0696 19.3434 26.9244 20.5988 27.7441C23.1132 29.3872 25.9028 30.9583 27.7822 31.981C30.0289 33.1995 32.7188 31.7964 33.1212 29.3466L37.312 3.94903ZM5.47324 16.7558L33.3945 4.9995L29.4843 28.7041C27.64 27.7017 24.9834 26.2007 22.6166 24.6537C21.5258 23.9533 20.4727 23.1959 19.4616 22.3847C19.1913 22.1639 18.929 21.9336 18.6751 21.6943L25.9877 14.3835C26.3341 14.0373 26.5288 13.5677 26.529 13.078C26.5292 12.5883 26.3348 12.1185 25.9886 11.7721C25.6425 11.4257 25.1729 11.231 24.6831 11.2308C24.1934 11.2306 23.7237 11.425 23.3772 11.7712L15.3705 19.778C14.0154 19.6044 12.1286 19.1023 10.0572 18.4192C8.51518 17.9054 6.98724 17.3501 5.47509 16.754L5.47324 16.7558Z" fill="#B4B4B4"/>
</svg>
