<svg width="38" height="38" viewBox="0 0 38 38" fill="none" xmlns="http://www.w3.org/2000/svg">
<path d="M19.3756 13.3835C16.3158 13.3835 13.8371 15.8631 13.8371 18.922C13.8371 21.9816 16.3167 24.4605 19.3756 24.4605C22.4353 24.4605 24.9141 21.9809 24.9141 18.922C24.9141 15.8624 22.4345 13.3835 19.3756 13.3835ZM19.3756 9.69122C24.4718 9.69122 28.6064 13.8212 28.6064 18.922C28.6064 24.0183 24.4764 28.1528 19.3756 28.1528C14.2793 28.1528 10.1448 24.0227 10.1448 18.922C10.1448 13.8257 14.2749 9.69122 19.3756 9.69122ZM31.3756 9.22811C31.3756 10.5022 30.3403 11.5358 29.0679 11.5358C27.7939 11.5358 26.7603 10.5006 26.7603 9.22811C26.7603 7.95565 27.7954 6.92199 29.0679 6.92199C30.3386 6.92038 31.3756 7.95565 31.3756 9.22811ZM19.3756 4.15276C14.8073 4.15276 14.0627 4.16485 11.938 4.25946C10.4904 4.32742 9.52 4.52212 8.61839 4.87215C7.81716 5.18289 7.23919 5.55395 6.62337 6.16977C6.00518 6.78796 5.63479 7.36438 5.3253 8.16598C4.97446 9.06966 4.77982 10.0385 4.71308 11.4841C4.61754 13.5224 4.60637 14.2347 4.60637 18.922C4.60637 23.4903 4.61846 24.2349 4.71306 26.3594C4.78105 27.8064 4.97601 28.7782 5.32519 29.6777C5.63674 30.48 6.00856 31.0593 6.62141 31.6723C7.24203 32.292 7.82017 32.6637 8.61417 32.9701C9.52676 33.3229 10.4965 33.5179 11.9377 33.5845C13.976 33.68 14.6883 33.6912 19.3756 33.6912C23.9439 33.6912 24.6885 33.679 26.8131 33.5845C28.2569 33.5168 29.2295 33.3213 30.1313 32.9723C30.9314 32.6616 31.5126 32.2885 32.1259 31.6761C32.7466 31.0545 33.1175 30.4778 33.4243 29.6819C33.7762 28.7727 33.9715 27.8016 34.0382 26.36C34.1336 24.3216 34.1449 23.6092 34.1449 18.922C34.1449 14.3537 34.1327 13.6091 34.0382 11.4845C33.9702 10.0403 33.7747 9.06628 33.4254 8.16478C33.1154 7.36577 32.7431 6.78602 32.1278 6.16977C31.5086 5.55057 30.9337 5.18094 30.1315 4.87169C29.2286 4.52114 28.2582 4.32622 26.8134 4.25948C24.7753 4.16393 24.0628 4.15276 19.3756 4.15276ZM19.3756 0.460449C24.3909 0.460449 25.0171 0.478911 26.9864 0.571218C28.9509 0.661994 30.291 0.972757 31.4679 1.42968C32.6847 1.89892 33.7125 2.53276 34.7386 3.5589C35.7632 4.58507 36.3972 5.61583 36.8679 6.82968C37.3232 8.00507 37.6341 9.3466 37.7264 11.3112C37.8141 13.2805 37.8372 13.9066 37.8372 18.922C37.8372 23.9374 37.8187 24.5635 37.7264 26.5328C37.6356 28.4974 37.3232 29.8374 36.8679 31.0143C36.3987 32.2313 35.7632 33.2589 34.7386 34.2851C33.7125 35.3097 32.6801 35.9435 31.4679 36.4143C30.291 36.8697 28.9509 37.1805 26.9864 37.2728C25.0171 37.3605 24.3909 37.3835 19.3756 37.3835C14.3602 37.3835 13.734 37.3651 11.7648 37.2728C9.80021 37.1819 8.46175 36.8697 7.28329 36.4143C6.0679 35.945 5.03867 35.3097 4.01252 34.2851C2.98637 33.2589 2.35406 32.2267 1.88329 31.0143C1.42637 29.8374 1.11714 28.4974 1.02483 26.5328C0.93714 24.5635 0.914062 23.9374 0.914062 18.922C0.914062 13.9066 0.932524 13.2805 1.02483 11.3112C1.11559 9.34507 1.42637 8.0066 1.88329 6.82968C2.35251 5.6143 2.98637 4.58507 4.01252 3.5589C5.03867 2.53276 6.06945 1.90045 7.28329 1.42968C8.46022 0.972757 9.79868 0.663526 11.7648 0.571218C13.734 0.483526 14.3602 0.460449 19.3756 0.460449Z" fill="#B4B4B4"/>
</svg>
