<svg width="37" height="38" viewBox="0 0 37 38" fill="none" xmlns="http://www.w3.org/2000/svg">
<path d="M20.3741 33.5774C27.6596 32.6689 33.2972 26.454 33.2972 18.9225C33.2972 10.7657 26.6848 4.15325 18.528 4.15325C10.3711 4.15325 3.75871 10.7657 3.75871 18.9225C3.75871 26.454 9.3963 32.6689 16.6818 33.5774V22.6148H12.9895V18.9225H16.6818V15.8686C16.6818 13.3998 16.9388 12.5045 17.4216 11.602C17.9042 10.6994 18.6125 9.99108 19.5151 9.50838C20.2216 9.13055 21.098 8.90251 22.6296 8.8047C23.2373 8.76588 24.0242 8.81539 24.9895 8.95325V12.4609H24.0664C22.373 12.4609 21.6742 12.5409 21.2564 12.7643C20.9974 12.9029 20.8161 13.0842 20.6775 13.3433C20.4541 13.761 20.3741 14.1751 20.3741 15.8686V18.9225H24.9895L24.0664 22.6148H20.3741V33.5774ZM18.528 37.384C8.33191 37.384 0.0664062 29.1184 0.0664062 18.9225C0.0664062 8.72645 8.33191 0.460938 18.528 0.460938C28.7239 0.460938 36.9895 8.72645 36.9895 18.9225C36.9895 29.1184 28.7239 37.384 18.528 37.384Z" fill="#B4B4B4"/>
</svg>
