<svg width="20" height="27" viewBox="0 0 20 27" fill="none" xmlns="http://www.w3.org/2000/svg">
<path fill-rule="evenodd" clip-rule="evenodd" d="M9.0775 25.6675C9.0775 25.6675 0 18.0225 0 10.5C0 7.84784 1.05357 5.3043 2.92893 3.42893C4.8043 1.55357 7.34784 0.5 10 0.5C12.6522 0.5 15.1957 1.55357 17.0711 3.42893C18.9464 5.3043 20 7.84784 20 10.5C20 18.0225 10.9225 25.6675 10.9225 25.6675C10.4175 26.1325 9.58625 26.1275 9.0775 25.6675ZM10 14.875C10.5745 14.875 11.1434 14.7618 11.6742 14.542C12.205 14.3221 12.6873 13.9998 13.0936 13.5936C13.4998 13.1873 13.8221 12.705 14.042 12.1742C14.2618 11.6434 14.375 11.0745 14.375 10.5C14.375 9.92547 14.2618 9.35656 14.042 8.82576C13.8221 8.29496 13.4998 7.81266 13.0936 7.40641C12.6873 7.00015 12.205 6.67789 11.6742 6.45803C11.1434 6.23816 10.5745 6.125 10 6.125C8.83968 6.125 7.72688 6.58594 6.90641 7.40641C6.08594 8.22688 5.625 9.33968 5.625 10.5C5.625 11.6603 6.08594 12.7731 6.90641 13.5936C7.72688 14.4141 8.83968 14.875 10 14.875Z" fill="white"/>
</svg>
