<svg width="28" height="21" viewBox="0 0 28 21" fill="none" xmlns="http://www.w3.org/2000/svg">
<path d="M5.5625 0.357178C4.42873 0.357041 3.32772 0.719369 2.4359 1.3861C1.54409 2.05284 0.913082 2.98539 0.644 4.03432L13.9989 10.9236L27.3571 4.03432C27.088 2.98521 26.4568 2.05253 25.5648 1.38577C24.6727 0.719019 23.5715 0.356801 22.4375 0.357178H5.5625ZM0.5 15.8929V6.39682L13.4634 13.0847C13.628 13.1696 13.8122 13.2141 13.9994 13.2141C14.1867 13.2141 14.3709 13.1696 14.5355 13.0847L27.5 6.39682V15.8929C27.5 17.1716 26.9666 18.398 26.0172 19.3022C25.0678 20.2064 23.7802 20.7143 22.4375 20.7143H5.5625C4.21984 20.7143 2.93217 20.2064 1.98277 19.3022C1.03337 18.398 0.5 17.1716 0.5 15.8929Z" fill="white"/>
</svg>
