<svg width="26" height="26" viewBox="0 0 26 26" fill="none" xmlns="http://www.w3.org/2000/svg">
<path d="M17.0601 18.1375L19.1601 16.0375C19.443 15.7582 19.8008 15.567 20.1903 15.4871C20.5797 15.4072 20.9839 15.4421 21.3539 15.5875L23.9133 16.6094C24.2871 16.7612 24.6077 17.0202 24.8346 17.3539C25.0615 17.6876 25.1846 18.0809 25.1883 18.4844V23.1719C25.1861 23.4464 25.1284 23.7176 25.0186 23.9692C24.9089 24.2208 24.7494 24.4476 24.5497 24.6359C24.35 24.8242 24.1142 24.9701 23.8566 25.065C23.599 25.1598 23.3249 25.2015 23.0508 25.1875C5.11639 24.0719 1.49764 8.88441 0.813266 3.07191C0.781497 2.78648 0.810524 2.49755 0.898437 2.22414C0.986349 1.95073 1.13116 1.69903 1.32333 1.4856C1.5155 1.27218 1.75069 1.10186 2.01341 0.985848C2.27614 0.869841 2.56045 0.810776 2.84764 0.812538H7.37577C7.77984 0.813734 8.17431 0.935789 8.50845 1.163C8.84259 1.39022 9.10111 1.7122 9.25077 2.08754L10.2726 4.64691C10.4229 5.01542 10.4612 5.42002 10.3828 5.81017C10.3045 6.20033 10.1129 6.55875 9.83202 6.84066L7.73202 8.94066C7.73202 8.94066 8.94139 17.125 17.0601 18.1375Z" fill="white"/>
</svg>
